<?xml version="1.0" standalone="no"?>
<!DOCTYPE svg PUBLIC "-//W3C//DTD SVG 20010904//EN"
 "http://www.w3.org/TR/2001/REC-SVG-20010904/DTD/svg10.dtd">
<svg version="1.0" xmlns="http://www.w3.org/2000/svg" style="opacity: 0.07;"
 width="846.000000pt" height="400.000000pt" viewBox="0 0 846.000000 400.000000"
 preserveAspectRatio="xMidYMid meet">

<g transform="translate(0.000000,400.000000) scale(0.100000,-0.100000)"
fill="#000000" stroke="none">
<path d="M8304 3750 c-34 -20 -126 -54 -192 -70 -24 -6 -57 -24 -74 -40 -16
-16 -44 -32 -61 -36 -81 -17 -188 -60 -252 -102 -107 -69 -129 -80 -197 -97
-74 -19 -145 -58 -244 -132 -53 -39 -86 -56 -124 -63 -77 -15 -88 -13 -115 16
-24 26 -25 26 -52 9 -16 -10 -64 -48 -108 -85 -44 -37 -120 -94 -170 -126 -49
-33 -121 -82 -160 -109 -117 -84 -237 -144 -288 -145 -43 -1 -109 -43 -132
-85 -13 -24 -41 -53 -71 -72 -27 -17 -71 -49 -99 -70 -69 -54 -278 -193 -347
-231 -31 -17 -99 -47 -150 -66 -128 -48 -149 -60 -190 -106 -33 -36 -41 -40
-83 -40 -77 0 -262 -108 -312 -182 -21 -32 -40 -46 -77 -60 -27 -9 -76 -39
-110 -65 -58 -45 -65 -48 -141 -55 -44 -4 -156 -5 -250 -2 -93 3 -270 7 -392
9 -231 3 -274 9 -328 50 -40 29 -79 42 -186 60 -82 14 -91 14 -121 -1 -42 -22
-115 -22 -157 0 -39 21 -131 46 -167 46 -14 0 -63 -21 -110 -46 l-85 -46 -40
37 c-31 27 -47 35 -64 31 -16 -4 -34 3 -60 24 -21 17 -50 33 -64 36 -14 3 -57
17 -96 32 -77 30 -80 30 -390 22 -186 -5 -191 -5 -222 18 -25 17 -43 22 -75
20 l-43 -3 -3 -47 c-2 -36 -9 -52 -28 -67 -32 -25 -31 -34 11 -62 19 -13 42
-39 50 -56 9 -18 25 -38 37 -44 32 -17 109 -15 146 5 18 9 68 19 113 23 72 5
82 9 104 35 29 34 35 35 64 4 19 -20 21 -28 12 -66 -5 -23 -7 -48 -5 -55 8
-21 141 -41 209 -33 80 10 173 1 237 -24 83 -32 125 -34 154 -7 24 22 24 22
47 3 39 -34 66 -44 113 -44 43 0 49 3 109 65 45 47 70 65 88 65 14 0 29 -4 32
-10 3 -5 14 -10 23 -10 9 0 25 -7 35 -15 18 -13 18 -15 -2 -61 -20 -44 -20
-47 -4 -59 10 -7 50 -21 90 -30 75 -18 83 -24 59 -44 -17 -14 -242 -7 -456 14
-80 8 -237 16 -349 17 -184 2 -206 4 -228 22 -36 28 -142 33 -218 10 -33 -9
-78 -17 -100 -17 -40 -1 -252 34 -310 51 -16 5 -53 4 -85 -1 -38 -7 -105 -6
-213 3 -166 14 -260 8 -432 -25 -44 -9 -97 -16 -118 -16 -32 1 -111 -17 -212
-47 -11 -3 -33 -13 -50 -23 -16 -9 -53 -24 -81 -34 -74 -26 -102 -49 -88 -72
14 -22 72 -20 122 4 28 13 86 17 345 19 415 3 543 8 597 24 25 7 83 12 130 12
47 0 202 -1 345 -1 143 -1 298 -7 345 -13 47 -6 128 -12 180 -13 52 -1 167 -9
255 -18 88 -9 214 -22 280 -28 148 -13 364 -35 470 -48 194 -24 247 -33 281
-47 l36 -15 -7 -62 c-3 -34 -8 -64 -11 -68 -2 -4 -33 -10 -67 -14 -85 -9 -158
-49 -169 -91 -4 -16 -16 -38 -25 -47 -46 -44 -119 -89 -152 -94 -20 -3 -49
-12 -65 -20 -24 -13 -27 -19 -24 -49 2 -19 0 -34 -4 -34 -4 0 -25 -15 -45 -34
-21 -18 -50 -36 -66 -40 -18 -4 -52 -36 -100 -93 -99 -119 -164 -182 -196
-189 -14 -3 -36 -7 -48 -10 -24 -5 -103 -103 -103 -128 0 -9 7 -34 17 -57 16
-40 15 -42 -3 -56 -18 -14 -33 -13 -96 3 -50 12 -76 -3 -101 -55 -39 -80 -39
-81 -11 -81 14 0 23 4 20 9 -3 4 23 16 57 25 183 52 207 66 337 200 84 87 154
126 223 126 60 0 111 34 115 78 4 38 33 59 52 37 8 -9 10 -28 6 -50 -4 -19 -3
-35 1 -35 5 0 27 17 49 37 22 21 61 49 87 62 55 28 77 51 131 133 26 40 60 75
91 96 121 80 226 138 312 173 52 21 120 54 152 73 32 20 72 36 87 36 20 0 54
19 104 57 l75 57 160 7 c173 6 215 1 343 -45 81 -29 116 -32 172 -15 33 10 44
9 84 -10 25 -13 56 -21 68 -20 13 1 43 -1 68 -5 43 -8 45 -7 76 29 l31 38 46
-14 c100 -29 111 -76 18 -72 -28 1 -53 -2 -56 -6 -10 -18 26 -32 95 -38 49 -4
77 -12 89 -23 9 -10 27 -21 40 -25 13 -4 44 -20 69 -36 49 -31 81 -36 100 -17
16 16 15 28 -2 28 -8 0 -31 18 -51 39 -37 38 -39 39 -91 34 -66 -7 -68 3 -14
53 22 20 37 40 35 44 -2 4 -30 15 -62 25 -32 10 -61 23 -65 29 -12 18 -9 119
5 146 15 30 68 42 140 34 35 -4 67 -19 115 -51 45 -30 81 -47 110 -51 50 -6
72 -30 72 -79 0 -28 -4 -33 -22 -33 -13 0 -43 9 -67 20 -84 39 -113 25 -109
-51 3 -52 4 -55 43 -72 52 -24 83 -54 100 -95 16 -38 37 -47 126 -56 69 -8
115 4 155 38 11 8 28 22 39 30 17 12 18 17 6 39 -17 32 -6 50 27 44 37 -7 52
2 52 29 0 31 -35 62 -78 70 -52 10 -85 -5 -96 -44 -11 -39 -123 -142 -154
-142 -21 0 -38 31 -28 49 4 5 19 12 36 16 36 8 80 41 80 61 0 8 -5 23 -12 33
-10 17 -6 28 35 79 26 33 47 67 47 75 0 22 -53 57 -118 77 -32 10 -82 29 -112
43 -115 52 -132 57 -210 57 -88 0 -107 12 -117 74 -5 34 -8 36 -43 36 -21 0
-54 -7 -74 -15 -37 -16 -37 -15 -64 15 -14 16 -31 30 -37 30 -13 0 -98 -97
-108 -122 -6 -18 -47 -24 -130 -21 -39 2 -42 7 -27 53 10 31 11 46 1 66 -10
22 -14 24 -27 13 -9 -7 -20 -23 -25 -36 -11 -28 -25 -29 -39 -3 -15 28 2 81
32 100 12 8 43 36 69 62 27 27 74 60 115 79 100 47 149 82 237 172 76 77 79
79 117 73 61 -10 134 20 199 80 31 28 76 61 100 73 24 13 53 33 65 45 11 12
41 30 66 39 25 9 88 49 140 88 52 38 113 78 135 88 22 10 114 68 205 128 91
61 195 125 230 143 157 77 242 124 323 179 111 75 140 91 170 91 19 0 36 9 50
27 53 65 109 113 144 122 21 6 65 27 98 47 33 20 119 66 190 102 72 36 153 79
180 96 55 35 93 51 143 61 43 9 85 45 116 102 39 69 37 73 -43 73 -110 0 -106
5 83 107 23 12 46 23 53 23 16 0 54 50 47 61 -8 14 -36 9 -70 -11z m-3803
-2099 c20 -16 22 -23 13 -38 -22 -36 -84 -24 -84 16 0 20 19 41 36 41 6 0 22
-9 35 -19z m-646 -71 c17 -27 -8 -91 -54 -140 -58 -61 -79 -65 -79 -12 1 20 0
57 -2 81 -2 36 2 48 20 63 24 20 104 25 115 8z m-2920 -70 c-3 -5 -10 -10 -16
-10 -5 0 -9 5 -9 10 0 6 7 10 16 10 8 0 12 -4 9 -10z m3180 -12 c98 -30 103
-36 71 -87 -24 -37 -30 -41 -66 -41 -22 0 -48 4 -58 9 -9 5 -34 16 -54 25 -46
20 -50 32 -26 79 22 44 34 46 133 15z m1210 -308 c-5 -8 -11 -8 -17 -2 -6 6
-7 16 -3 22 5 8 11 8 17 2 6 -6 7 -16 3 -22z m-145 10 c0 -5 -7 -10 -15 -10
-8 0 -15 5 -15 10 0 6 7 10 15 10 8 0 15 -4 15 -10z m1090 -280 c16 -10 12
-12 -42 -24 -27 -6 -44 6 -33 24 8 13 55 13 75 0z"/>
<path d="M523 2088 c-11 -5 -29 -25 -39 -43 -19 -35 -13 -33 -174 -70 -41 -10
-86 -24 -100 -31 l-25 -12 28 -7 c15 -4 67 -4 115 0 105 10 142 8 194 -11 22
-8 52 -14 67 -14 14 0 42 -11 62 -24 46 -31 163 -46 372 -46 137 0 163 -3 196
-20 67 -34 109 -35 179 -6 37 16 80 26 110 26 42 0 50 3 65 29 24 41 22 52
-20 93 -51 48 -73 58 -128 58 -67 0 -103 -28 -107 -83 -3 -36 -6 -42 -28 -45
-19 -2 -31 6 -49 33 -34 51 -65 69 -161 93 -140 37 -182 27 -184 -43 -2 -36
-4 -39 -46 -51 -60 -18 -58 -19 -75 23 -9 21 -24 47 -34 58 -10 11 -22 30 -25
41 -4 12 -19 26 -34 32 -99 35 -122 38 -159 20z"/>
<path d="M3668 1823 c7 -3 16 -2 19 1 4 3 -2 6 -13 5 -11 0 -14 -3 -6 -6z"/>
<path d="M2147 1634 c-9 -10 2 -24 19 -24 8 0 14 7 14 15 0 15 -21 21 -33 9z"/>
<path d="M5758 1243 c6 -2 18 -2 25 0 6 3 1 5 -13 5 -14 0 -19 -2 -12 -5z"/>
<path d="M6546 1004 c-21 -20 -20 -30 6 -67 33 -47 49 -56 93 -57 22 0 76 -11
120 -25 75 -23 164 -33 178 -19 15 15 -16 42 -60 53 -26 7 -102 39 -169 72
-67 32 -128 59 -137 59 -8 0 -23 -7 -31 -16z"/>
<path d="M5907 926 c-3 -8 -3 -16 0 -19 9 -10 33 5 33 19 0 18 -26 18 -33 0z"/>
<path d="M6527 853 c-10 -9 23 -43 43 -43 30 0 31 13 3 32 -31 20 -36 21 -46
11z"/>
<path d="M6771 780 c-14 -8 -7 -30 9 -30 11 0 21 28 12 34 -5 3 -14 1 -21 -4z"/>
</g>
</svg>
