<?xml version="1.0" standalone="no"?>
<!DOCTYPE svg PUBLIC "-//W3C//DTD SVG 20010904//EN"
 "http://www.w3.org/TR/2001/REC-SVG-20010904/DTD/svg10.dtd">
<svg version="1.0" xmlns="http://www.w3.org/2000/svg" style= "opacity: .07"
 width="318.000000pt" height="96.000000pt" viewBox="0 0 318.000000 96.000000"
 preserveAspectRatio="xMidYMid meet">

<g transform="translate(0.000000,96.000000) scale(0.100000,-0.100000)"
fill="#000000" stroke="none">
<path d="M1635 793 c-44 -8 -132 -37 -160 -52 -16 -9 -38 -18 -47 -21 -9 -3
-68 -55 -130 -116 -116 -114 -165 -147 -269 -179 -56 -18 -56 -18 -88 6 -24
17 -31 30 -31 55 0 24 -5 34 -20 39 -11 3 -20 14 -20 24 0 31 -29 79 -52 84
-27 7 -94 -7 -134 -28 -16 -8 -35 -15 -42 -15 -14 0 -272 -256 -272 -270 0
-14 -41 -23 -53 -11 -16 16 -47 -6 -47 -32 0 -13 -5 -28 -11 -34 -5 -5 -11
-41 -12 -79 l-2 -69 33 -3 c33 -3 35 -1 46 50 5 21 12 28 30 28 13 0 29 7 36
15 11 14 74 51 162 97 44 23 55 19 143 -56 80 -68 132 -91 238 -101 50 -5 65
-2 125 27 37 17 93 51 124 75 32 24 73 50 91 58 18 7 38 25 45 39 7 15 20 26
32 26 14 0 25 14 41 50 21 50 32 59 44 40 3 -5 14 -10 24 -10 21 0 74 -56 125
-132 26 -40 48 -61 75 -71 20 -9 43 -23 51 -32 15 -18 74 -45 99 -45 9 0 25
14 35 31 14 24 21 28 27 18 5 -8 9 -24 9 -37 0 -12 7 -25 16 -29 25 -10 155
26 205 57 25 15 59 31 77 34 17 4 36 14 43 22 16 20 34 18 77 -9 73 -45 176
-89 231 -98 91 -15 96 -15 96 2 0 9 6 23 13 31 10 13 9 17 -5 22 -15 6 -15 8
-3 16 23 15 40 12 47 -8 12 -32 25 -44 34 -30 5 7 9 21 9 30 0 10 9 27 20 38
11 11 20 29 20 39 0 15 7 19 38 19 33 0 34 -1 13 -9 -19 -8 -21 -12 -11 -24
15 -18 26 -12 45 26 17 31 35 39 35 14 0 -29 27 -14 38 21 14 45 5 49 -87 35
-78 -12 -94 -8 -171 43 -50 34 -76 61 -86 91 -3 11 -17 31 -30 45 -14 14 -35
38 -48 54 l-24 28 -79 -16 c-44 -9 -89 -16 -100 -16 -12 0 -56 -20 -99 -45
-44 -25 -86 -45 -95 -45 -9 0 -19 -3 -22 -7 -14 -13 -112 -43 -144 -43 -43 0
-72 29 -66 64 4 18 0 28 -11 32 -9 3 -16 12 -16 20 0 8 -12 41 -27 74 -21 46
-32 60 -45 57 -22 -6 -53 16 -44 31 4 6 14 8 23 5 14 -6 15 -4 5 8 -7 8 -18
21 -25 30 -13 18 -59 28 -92 22z m130 -558 c0 -15 -6 -19 -24 -17 -33 3 -36 8
-21 27 17 21 45 15 45 -10z"/>
<path d="M2656 141 c-4 -5 -2 -12 3 -15 5 -4 12 -2 15 3 4 5 2 12 -3 15 -5 4
-12 2 -15 -3z"/>
</g>
</svg>
