<?xml version="1.0" standalone="no"?>
<!DOCTYPE svg PUBLIC "-//W3C//DTD SVG 20010904//EN"
 "http://www.w3.org/TR/2001/REC-SVG-20010904/DTD/svg10.dtd">
<svg version="1.0" xmlns="http://www.w3.org/2000/svg" style= "opacity: .1"
 width="526.000000pt" height="176.000000pt" viewBox="0 -20 526.000000 176.000000"
 preserveAspectRatio="xMidYMid meet">

<g transform="translate(0.000000,176.000000) scale(0.100000,-0.100000)"
fill="#000000" stroke="none">
<path d="M4330 1569 c-272 -9 -636 -23 -995 -39 -121 -6 -375 -17 -565 -25
-190 -8 -433 -19 -540 -25 -107 -5 -292 -14 -410 -20 -118 -6 -294 -15 -390
-20 -96 -5 -319 -17 -495 -25 -176 -8 -381 -20 -455 -25 -75 -6 -168 -10 -207
-10 -56 0 -76 -4 -94 -20 l-24 -20 35 -30 c19 -17 41 -30 50 -30 9 0 20 -4 25
-9 6 -4 44 -21 85 -35 41 -15 84 -31 95 -36 35 -15 210 -75 495 -169 151 -51
283 -96 292 -101 10 -6 25 -10 33 -10 8 0 23 -4 33 -9 9 -5 132 -46 272 -92
140 -45 259 -86 264 -91 6 -4 18 -8 28 -8 10 0 26 -4 36 -9 9 -5 85 -30 167
-57 83 -26 157 -51 165 -55 8 -4 85 -30 170 -58 85 -28 335 -111 555 -186 466
-158 610 -205 633 -205 33 0 101 42 204 127 134 111 186 153 437 355 112 89
233 187 270 216 36 30 126 102 199 160 73 59 143 115 155 126 12 10 55 46 96
80 119 100 191 176 191 203 0 54 -60 69 -127 32 -21 -12 -78 -55 -128 -96 -49
-41 -97 -80 -105 -86 -44 -34 -116 -92 -120 -97 -3 -3 -27 -24 -55 -45 -27
-22 -59 -48 -70 -57 -11 -9 -103 -83 -205 -164 -102 -81 -187 -150 -190 -153
-3 -4 -93 -77 -200 -163 -108 -85 -203 -162 -210 -169 -52 -50 -126 -98 -158
-104 -29 -4 -69 4 -177 40 -233 75 -404 130 -530 170 -66 20 -129 40 -140 45
-11 4 -74 24 -140 45 -66 21 -129 41 -140 45 -11 5 -72 24 -135 44 -205 65
-464 149 -485 156 -11 5 -74 25 -140 45 -66 20 -158 50 -205 65 -47 15 -150
49 -230 74 -362 115 -443 141 -569 183 -153 50 -169 57 -152 67 16 10 161 23
401 36 113 6 279 15 370 21 91 5 260 14 375 19 405 20 1015 52 1610 85 154 9
359 20 455 25 623 35 1155 72 1255 89 65 11 -319 11 -665 0z"/>
</g>
</svg>
