<?xml version="1.0" standalone="no"?>
<!DOCTYPE svg PUBLIC "-//W3C//DTD SVG 20010904//EN"
 "http://www.w3.org/TR/2001/REC-SVG-20010904/DTD/svg10.dtd">
<svg version="1.0" xmlns="http://www.w3.org/2000/svg"
 width="1717.000000pt" height="1304.000000pt" viewBox="0 0 1717.000000 1304.000000"
 preserveAspectRatio="xMidYMid meet">

<g transform="translate(0.000000,1304.000000) scale(0.100000,-0.100000)"
fill="#0c0d0d" stroke="none">
<path d="M0 6520 l0 -6520 8585 0 8585 0 0 6520 0 6520 -8585 0 -8585 0 0
-6520z m9090 3790 c9 -16 8 -18 -5 -14 -8 4 -15 12 -15 20 0 20 7 17 20 -6z
m66 8 c5 -8 2 -9 -9 -5 -34 13 -25 -11 11 -29 20 -10 39 -22 40 -27 2 -4 7 -5
12 -2 5 3 11 -3 14 -13 6 -19 47 -22 96 -8 24 7 24 7 -3 -12 -27 -18 -27 -20
-8 -25 14 -3 19 -11 16 -26 -3 -18 0 -21 15 -16 12 4 20 2 20 -5 0 -7 6 -10
13 -7 8 3 22 -6 32 -19 14 -19 20 -22 27 -12 6 10 8 9 8 -3 0 -9 8 -25 18 -36
16 -19 21 -20 47 -9 17 7 39 10 50 6 16 -6 13 -9 -18 -15 -20 -4 -39 -11 -42
-15 -3 -5 -14 -6 -24 -3 -10 3 -21 1 -24 -4 -9 -14 21 -13 91 4 69 16 95 12
39 -6 -20 -7 -38 -18 -41 -26 -3 -8 -2 -14 2 -14 18 3 51 -14 45 -24 -3 -6 -1
-7 6 -3 6 4 9 12 6 17 -4 5 3 9 14 9 11 0 23 -4 26 -10 3 -5 -1 -10 -9 -10
-10 0 -13 -7 -11 -21 3 -15 0 -19 -10 -15 -8 3 -15 1 -15 -4 0 -6 5 -10 11
-10 5 0 7 -4 4 -10 -3 -5 -3 -10 2 -10 10 0 43 57 43 76 0 8 4 14 9 14 17 0 9
-50 -8 -51 -14 0 -14 -1 -1 -7 17 -8 19 -20 7 -39 -6 -9 -3 -11 8 -7 9 4 14
13 11 20 -3 8 1 14 9 14 8 0 15 -6 15 -12 0 -9 4 -8 10 2 7 12 10 12 10 1 0
-7 6 -11 14 -8 11 4 11 1 2 -19 -14 -31 -32 -37 -51 -18 -8 9 -15 11 -15 5 0
-5 8 -14 18 -20 14 -8 9 -11 -25 -17 -24 -3 -43 -10 -43 -14 0 -9 109 12 132
26 8 5 9 0 5 -15 -4 -18 -2 -21 10 -17 13 5 14 1 10 -22 -6 -27 -4 -29 21 -24
15 2 35 11 45 20 12 11 17 12 17 2 0 -7 7 -10 15 -7 8 4 17 2 20 -4 10 -15
-24 -23 -40 -9 -8 7 -15 9 -15 5 0 -4 10 -15 23 -25 28 -23 16 -37 -15 -16
-29 21 -48 20 -48 -1 0 -16 2 -16 10 -3 9 13 12 12 25 -4 8 -11 15 -17 15 -13
0 5 6 2 14 -5 8 -7 12 -16 10 -20 -2 -4 1 -10 7 -14 7 -4 9 -3 6 2 -3 6 -2 16
3 24 7 11 11 10 25 -3 9 -10 21 -17 26 -17 19 0 24 -2 38 -13 12 -10 13 -9 6
2 -5 10 -4 12 3 7 17 -10 15 -26 -3 -26 -17 0 -20 -16 -5 -25 6 -3 10 0 10 7
1 8 6 6 15 -6 8 -10 19 -15 27 -11 7 4 2 -3 -12 -15 -14 -12 -19 -19 -12 -15
19 10 14 -19 -9 -49 -11 -14 -16 -26 -11 -26 6 0 12 7 16 15 3 8 12 15 20 15
10 0 13 6 10 15 -4 8 -1 15 5 15 6 0 11 -9 11 -20 0 -11 -5 -20 -11 -20 -7 0
-1 -10 13 -23 27 -25 43 -57 27 -57 -5 0 -2 -14 7 -31 8 -17 11 -28 5 -25 -6
4 -11 3 -11 -3 0 -6 -6 -8 -14 -5 -10 4 -12 -2 -9 -20 3 -14 1 -26 -5 -26 -5
0 -12 -7 -15 -14 -4 -10 -1 -13 9 -9 7 3 14 9 14 14 0 5 9 9 20 9 11 0 20 4
20 10 0 5 -7 7 -15 4 -8 -4 -15 -1 -15 5 0 16 37 14 43 -3 7 -18 -1 -26 -26
-26 -15 0 -17 -3 -8 -14 9 -10 8 -16 -4 -26 -8 -7 -15 -17 -15 -22 0 -6 6 -6
14 1 11 9 15 9 18 -1 6 -18 -2 -48 -14 -48 -5 0 -6 5 -2 12 5 7 3 8 -5 3 -9
-5 -7 -12 8 -26 24 -23 25 -25 9 -35 -7 -5 -8 -3 -3 6 5 9 4 11 -3 6 -7 -4
-22 -9 -33 -11 -12 -3 -24 -7 -28 -10 -3 -4 6 -4 21 -1 14 2 34 -1 43 -8 15
-11 16 -16 5 -37 -11 -22 -10 -22 13 4 13 15 33 27 43 27 18 -1 18 -1 1 -11
-9 -6 -15 -14 -12 -20 3 -5 -10 -17 -30 -26 -31 -15 -37 -15 -45 -3 -8 12 -10
12 -15 -1 -4 -11 -18 -15 -50 -13 -25 2 -45 -1 -45 -7 0 -7 65 -15 93 -10 5 1
6 -3 2 -9 -3 -5 -18 -10 -33 -10 -25 0 -25 -1 -6 -15 10 -8 16 -15 12 -16 -5
-1 -12 -3 -18 -4 -5 -1 -16 -3 -22 -4 -10 -1 -10 -3 1 -10 7 -5 23 -6 35 -3
11 3 18 2 14 -2 -3 -4 -26 -12 -49 -17 -32 -8 -45 -7 -52 3 -6 9 -7 7 -3 -6 6
-16 2 -18 -24 -12 -20 4 -29 2 -25 -5 4 -6 -3 -7 -19 -3 -16 4 -26 2 -26 -5 0
-6 -13 -9 -32 -6 -26 4 -29 4 -13 -4 11 -5 32 -12 48 -15 15 -4 27 -11 27 -17
0 -6 -6 -9 -13 -6 -7 3 -26 -1 -42 -9 -29 -13 -28 -13 20 -7 28 3 59 7 70 9
20 3 20 3 0 -12 -11 -8 -25 -12 -32 -10 -7 3 -13 1 -13 -4 0 -14 15 -12 55 4
30 13 33 13 28 -1 -4 -10 -2 -14 3 -10 6 3 28 0 50 -8 23 -9 31 -14 19 -15
-20 -1 -20 -1 -1 -12 15 -8 21 -8 24 0 2 7 16 12 30 11 29 -1 26 -3 -35 -24
-27 -9 -30 -25 -5 -26 12 0 10 -3 -8 -10 -14 -6 -63 -9 -109 -6 -65 4 -80 2
-65 -6 10 -6 58 -12 106 -12 48 0 84 -4 80 -9 -3 -5 1 -5 9 0 8 4 23 10 34 11
l20 3 -20 -16 c-11 -8 -27 -13 -36 -11 -8 2 -24 -2 -34 -9 -10 -8 -29 -14 -41
-14 -13 0 -29 -7 -38 -15 -8 -8 -20 -15 -26 -15 -6 0 -9 -4 -6 -8 3 -5 31 -7
63 -6 48 2 52 1 23 -5 -33 -8 -25 -15 12 -12 9 1 19 -3 23 -9 4 -6 3 -10 -2
-9 -19 3 -34 -2 -28 -10 3 -5 0 -13 -6 -17 -6 -3 -15 0 -20 7 -7 11 -9 9 -9
-8 0 -16 5 -20 20 -16 11 3 20 1 20 -5 0 -6 17 -6 46 -1 25 5 50 6 56 3 5 -3
20 2 34 11 30 19 151 58 167 52 6 -2 -10 -10 -36 -17 -26 -8 -47 -18 -47 -22
0 -4 21 0 48 9 26 9 60 16 75 16 16 0 24 3 17 7 -25 15 55 30 115 21 6 -1 -5
-11 -23 -22 -52 -34 -30 -33 27 1 29 17 57 28 62 25 5 -4 17 -1 26 5 17 11 17
11 1 6 -32 -10 -19 5 17 20 41 17 48 17 40 4 -10 -16 1 -11 16 7 9 11 10 14 2
9 -9 -5 -11 -2 -6 10 4 12 3 15 -6 10 -10 -6 -10 -4 0 12 7 12 21 23 31 25 16
5 16 3 3 -16 -19 -28 -19 -39 1 -35 10 2 19 -3 21 -9 3 -7 -2 -13 -11 -13 -17
0 -21 -5 -30 -44 -6 -25 -5 -28 13 -23 29 7 26 2 -13 -22 -18 -12 -45 -21 -60
-21 -14 0 -26 -4 -26 -9 0 -16 24 -18 50 -4 14 7 33 13 43 13 10 0 28 5 40 11
21 10 21 10 3 -5 -11 -9 -26 -16 -33 -16 -7 0 -13 -4 -13 -8 0 -4 9 -8 20 -8
11 0 20 5 20 11 0 5 4 4 9 -3 6 -11 10 -8 14 10 8 30 63 73 73 56 4 -7 3 -8
-4 -4 -7 4 -12 1 -12 -8 0 -8 -9 -18 -20 -21 -15 -5 -19 -12 -15 -26 4 -11 1
-27 -6 -35 -6 -8 -9 -17 -5 -21 3 -3 6 -1 6 5 0 7 6 12 14 12 8 0 17 11 20 24
3 13 12 26 19 29 11 4 13 -4 11 -31 -2 -21 -1 -31 2 -24 8 18 21 15 27 -8 3
-11 1 -20 -4 -20 -5 0 -8 -3 -8 -7 3 -20 -2 -26 -11 -13 -8 13 -10 12 -10 -4
0 -15 5 -17 26 -12 21 6 25 4 21 -8 -4 -9 -2 -16 3 -16 5 0 7 -7 3 -16 -4 -12
-2 -15 8 -12 8 3 22 -1 32 -10 19 -17 24 -3 5 16 -9 10 -8 15 5 27 9 8 13 10
8 4 -6 -8 -5 -19 4 -33 8 -12 11 -26 7 -31 -9 -13 -46 -19 -38 -7 4 6 -3 8
-16 4 -21 -5 -21 -6 8 -20 16 -8 53 -43 83 -77 30 -35 60 -61 67 -58 7 2 15
-1 20 -8 4 -8 3 -10 -4 -5 -27 16 -32 -7 -7 -30 14 -13 21 -24 15 -24 -19 0
-80 62 -73 74 3 6 3 8 -1 4 -5 -4 -26 9 -47 29 -21 20 -48 42 -59 50 -18 13
-19 12 -13 -4 6 -17 5 -17 -15 1 -12 11 -22 26 -21 35 0 10 2 12 6 4 2 -7 10
-13 15 -13 11 0 -70 80 -81 80 -3 0 -25 18 -48 40 -24 21 -43 36 -43 31 0 -4
14 -20 30 -36 17 -16 30 -36 30 -44 -1 -13 -2 -13 -11 2 -5 9 -16 17 -24 17
-12 0 -11 -4 3 -21 42 -50 61 -68 64 -59 3 10 98 -76 98 -89 0 -4 11 -14 25
-21 13 -7 22 -18 18 -24 -3 -6 0 -5 8 1 11 11 7 19 -21 48 -19 19 -30 35 -24
35 16 0 76 -69 69 -80 -4 -6 -1 -9 7 -8 7 2 12 -2 11 -9 -2 -7 3 -10 11 -7 17
7 90 -68 74 -77 -6 -4 -3 -9 11 -14 11 -3 21 -11 21 -16 0 -13 -33 5 -97 54
-29 21 -50 44 -46 50 4 6 1 7 -6 3 -7 -5 -20 -2 -29 6 -9 8 -39 27 -66 43 -28
15 -59 38 -70 50 -22 22 -88 65 -101 65 -5 0 2 -8 13 -19 12 -10 18 -21 15
-25 -4 -4 0 -4 8 -1 9 3 22 -2 30 -11 9 -12 10 -15 2 -10 -7 4 -13 5 -13 3 0
-3 21 -17 48 -32 26 -15 104 -66 174 -112 70 -47 132 -82 138 -78 6 4 19 1 28
-7 31 -25 79 -48 86 -41 4 4 4 0 0 -10 -5 -13 -2 -16 10 -11 10 4 18 0 22 -10
3 -9 11 -13 17 -9 6 3 7 1 3 -5 -4 -7 -14 -12 -22 -12 -40 0 4 -40 78 -71 29
-12 59 -27 66 -32 8 -6 12 -5 12 5 0 8 -16 22 -35 31 -19 9 -35 22 -35 27 0 6
-4 8 -10 5 -5 -3 -10 -1 -10 4 0 14 6 14 31 1 29 -16 23 -3 -17 38 -21 21 -31
38 -24 40 7 3 16 -2 21 -9 4 -7 11 -11 14 -7 3 3 -18 32 -47 64 -29 32 -45 55
-35 51 11 -4 16 -3 12 3 -3 6 -12 10 -20 10 -8 0 -17 5 -21 12 -5 7 -2 9 9 5
11 -4 14 -2 10 9 -3 7 -11 14 -17 14 -7 0 -19 11 -26 25 -7 13 -16 22 -20 20
-4 -2 -7 2 -7 10 0 11 5 12 21 3 32 -16 165 -157 155 -164 -12 -7 -12 -34 0
-34 5 0 12 11 15 25 13 51 66 18 121 -75 15 -25 25 -35 22 -22 -3 12 -1 22 4
22 5 0 9 -5 9 -11 0 -5 4 -8 8 -5 9 6 92 -117 92 -137 0 -7 7 -23 16 -35 8
-12 12 -22 8 -22 -3 0 0 -10 9 -23 17 -27 36 -139 42 -252 3 -44 9 -130 15
-192 6 -61 7 -118 4 -127 -3 -9 -2 -16 3 -16 5 0 10 -26 11 -57 1 -32 7 -85
12 -118 5 -32 7 -76 4 -97 -4 -21 -2 -44 3 -50 6 -7 11 -42 12 -77 2 -36 4
-91 6 -123 2 -33 0 -58 -6 -58 -6 0 -7 -26 -2 -67 8 -77 8 -74 -1 -163 -9 -91
-27 -201 -38 -229 -6 -17 -5 -27 4 -33 10 -6 9 -8 -3 -8 -17 0 -18 -6 -19 -87
0 -29 -5 -55 -11 -58 -5 -4 -6 -12 -2 -18 9 -15 4 -90 -8 -102 -5 -5 -9 -26
-9 -47 0 -45 -19 -139 -31 -154 -13 -16 -5 -97 9 -102 7 -2 12 6 13 20 2 30 3
36 16 83 7 22 12 54 11 72 -1 17 4 44 9 60 6 15 17 48 24 73 7 25 16 50 20 55
4 6 13 29 20 53 13 45 36 60 25 16 -5 -17 -3 -23 4 -19 5 3 10 16 10 29 0 13
9 33 20 46 11 13 20 27 20 32 0 5 5 6 10 3 6 -3 10 4 10 17 0 18 2 20 10 8 7
-10 10 -11 11 -2 1 6 3 17 4 22 1 6 3 15 4 21 0 5 6 7 11 4 6 -4 10 9 11 32 3
85 9 145 18 162 6 10 13 41 17 69 7 56 17 70 38 53 11 -9 14 6 18 82 3 51 10
101 16 112 7 11 16 33 22 48 5 16 14 26 19 23 4 -3 18 27 30 67 12 39 26 83
31 97 5 14 11 56 13 93 5 76 12 90 32 64 21 -28 28 -134 15 -205 -12 -69 -47
-191 -60 -207 -34 -46 -76 -224 -100 -430 -11 -93 -43 -270 -61 -340 -8 -32
-7 -48 6 -78 74 -178 -30 -350 -227 -373 -80 -9 -100 4 -96 64 3 54 -13 67
-25 20 -4 -18 -11 -40 -14 -48 -3 -8 -5 -23 -4 -33 1 -9 -3 -42 -9 -73 -9 -43
-15 -54 -27 -50 -12 5 -14 -1 -8 -35 4 -23 3 -39 -1 -36 -5 3 -10 -9 -11 -26
-1 -17 -7 -33 -12 -36 -5 -3 -12 -37 -16 -76 -4 -38 -16 -89 -26 -113 -11 -24
-19 -52 -19 -63 0 -11 -11 -32 -25 -47 -19 -20 -24 -36 -22 -70 1 -24 -4 -46
-10 -50 -9 -6 -24 -54 -25 -79 0 -15 -32 -62 -38 -58 -4 2 -7 -1 -7 -8 0 -12
-39 -123 -67 -190 -6 -15 -14 -27 -18 -27 -5 0 -8 -5 -8 -12 0 -19 -53 -121
-85 -163 -16 -22 -39 -57 -50 -78 -11 -21 -27 -37 -37 -37 -10 0 -19 -8 -20
-17 0 -10 -2 -25 -2 -33 -1 -8 -8 -14 -16 -13 -9 2 -34 -28 -62 -72 -28 -44
-54 -75 -64 -75 -10 0 -14 -5 -11 -15 4 -8 1 -17 -5 -21 -7 -5 -8 -2 -3 6 5 8
3 11 -6 8 -8 -3 -14 -15 -13 -27 0 -12 -5 -21 -14 -21 -17 0 -92 -79 -92 -97
0 -7 -4 -13 -8 -13 -15 0 -82 -62 -82 -76 0 -8 -6 -11 -17 -7 -13 5 -15 2 -11
-15 4 -12 2 -20 -2 -17 -10 6 -42 -24 -36 -34 3 -4 -7 -16 -21 -27 -14 -10
-44 -36 -67 -57 -23 -20 -46 -37 -53 -37 -6 0 -20 -16 -32 -35 -11 -19 -25
-34 -32 -33 -6 2 -16 -6 -22 -17 -7 -11 -21 -29 -32 -40 -12 -11 -39 -42 -60
-70 -65 -82 -87 -107 -142 -163 -29 -29 -53 -55 -53 -57 0 -10 -155 -153 -162
-149 -4 3 -8 -5 -8 -18 0 -18 -2 -20 -10 -8 -7 11 -10 11 -10 2 0 -7 -4 -11
-8 -8 -5 3 -18 -3 -29 -14 -12 -10 -24 -16 -27 -13 -3 4 -16 -3 -29 -14 -12
-11 -36 -27 -54 -36 -29 -13 -32 -13 -35 1 -3 14 -5 14 -20 -1 -9 -9 -21 -17
-27 -17 -6 0 -11 -4 -11 -10 0 -5 -4 -10 -10 -10 -5 0 -10 9 -10 20 0 11 -4
20 -10 20 -5 0 -10 -5 -10 -10 0 -6 -6 -9 -12 -8 -9 2 -12 -8 -11 -27 1 -16
-1 -22 -4 -12 -6 21 -23 22 -49 3 -13 -10 -23 -11 -31 -4 -7 6 -13 7 -13 2 0
-15 -123 -4 -141 12 -15 13 -17 13 -23 -2 -5 -13 -9 -14 -21 -4 -12 10 -13 16
-3 29 11 14 11 14 -3 3 -14 -11 -20 -10 -35 5 -17 17 -17 17 -12 -2 4 -17 0
-21 -23 -23 -16 -1 -29 2 -29 7 0 5 -20 13 -45 17 -27 4 -45 12 -45 19 0 20
-22 24 -47 8 -13 -9 -20 -21 -17 -31 5 -14 4 -14 -6 1 -7 12 -18 16 -31 12
-12 -4 -19 -2 -19 7 0 8 -9 14 -20 15 -11 1 -20 -4 -20 -12 0 -8 -5 -17 -11
-21 -8 -5 -10 1 -7 20 6 28 -6 36 -16 11 -3 -8 -12 -15 -20 -15 -8 0 -16 -6
-19 -12 -3 -10 -12 -9 -37 4 -32 18 -86 15 -74 -4 8 -13 -39 12 -47 25 -4 5
-14 -3 -23 -19 l-16 -29 5 33 c4 25 2 33 -7 29 -7 -2 -12 -11 -12 -20 1 -9 -2
-14 -7 -11 -5 3 -9 11 -9 19 0 8 -5 17 -12 21 -7 4 -8 3 -4 -4 4 -7 3 -12 -3
-12 -6 0 -7 -7 -4 -17 4 -11 3 -14 -5 -9 -6 4 -10 21 -8 37 3 27 1 30 -18 25
-19 -5 -21 -1 -21 33 0 27 -8 44 -25 62 -26 25 -65 35 -75 18 -4 -5 -11 -9
-17 -9 -7 0 -6 5 2 15 15 18 4 36 -17 28 -13 -5 -15 -2 -8 23 5 16 9 45 10 64
2 41 30 54 52 24 12 -17 13 -16 13 5 0 14 -7 25 -20 28 -11 3 -20 10 -20 16 0
5 -9 2 -20 -8 -11 -10 -23 -15 -26 -12 -4 3 10 16 30 28 20 11 33 25 30 30 -3
5 2 9 10 9 26 0 26 16 2 49 -14 19 -22 40 -19 51 3 11 0 20 -6 20 -8 0 -9 5
-1 19 13 26 13 31 -5 31 -10 0 -12 -6 -8 -17 6 -17 6 -17 -10 -1 -9 9 -17 24
-17 33 0 9 -4 13 -10 10 -5 -3 -10 -15 -10 -26 0 -11 -4 -18 -9 -15 -5 3 -7
15 -4 26 3 12 -1 22 -11 26 -9 3 -16 17 -16 30 0 13 -5 24 -11 24 -5 0 -8 4
-5 9 3 4 -2 17 -10 27 -9 10 -12 13 -9 6 5 -10 2 -13 -10 -10 -20 3 -29 52
-15 77 7 12 9 8 10 -17 0 -19 4 -31 10 -27 10 6 6 25 -18 72 -14 28 -14 39 -3
81 6 27 11 53 10 58 -3 12 19 64 26 64 3 0 5 -6 4 -12 -3 -26 1 -51 8 -45 3 4
17 0 30 -8 25 -16 32 -5 10 17 -7 7 -23 29 -36 48 -14 19 -34 43 -45 52 l-21
17 23 -2 c12 -1 22 -5 22 -10 0 -4 4 -5 10 -2 5 3 12 -6 16 -20 7 -27 24 -34
24 -10 0 8 5 15 10 15 6 0 10 7 10 15 0 8 4 15 9 15 5 0 11 9 14 20 3 13 10
18 21 14 9 -3 16 -1 16 5 0 6 9 11 19 11 11 0 22 6 24 13 4 9 8 8 16 -3 10
-13 13 -13 22 3 6 9 14 15 20 12 5 -4 9 -1 9 6 0 8 4 8 13 1 8 -7 18 -7 27 -2
22 14 30 12 24 -8 -4 -13 -1 -12 14 5 12 14 28 21 41 18 12 -2 21 1 21 8 0 7
4 6 10 -3 8 -13 10 -12 10 4 0 17 2 18 18 4 16 -15 57 -16 105 -4 24 6 51 -7
53 -24 1 -5 2 -13 3 -16 0 -3 11 2 22 10 12 8 28 12 35 9 9 -3 14 2 15 13 1
17 2 17 6 2 5 -20 18 -23 28 -8 4 6 15 8 26 5 11 -4 19 -2 19 6 0 8 12 10 38
6 20 -4 42 -3 47 1 15 10 13 37 -2 38 -7 1 -14 2 -15 4 -13 11 -179 17 -213 8
-16 -4 -33 -4 -38 1 -6 6 -19 6 -35 0 -14 -5 -38 -8 -54 -5 -17 3 -28 0 -28
-7 0 -8 -3 -8 -8 -2 -4 6 -19 16 -34 22 -22 10 -28 10 -29 0 0 -6 -5 -1 -10
12 -6 15 -15 21 -24 17 -8 -3 -15 -4 -15 -2 0 3 -3 13 -7 23 -6 16 -5 16 10 4
11 -9 17 -10 17 -2 0 18 20 12 21 -6 0 -11 3 -13 6 -5 2 6 9 9 15 6 6 -4 8 2
4 15 -3 11 -9 30 -12 41 -8 29 1 25 25 -13 11 -17 21 -27 21 -20 0 6 -4 15
-10 18 -15 9 -12 25 5 25 8 0 15 -5 15 -12 0 -6 2 -9 5 -7 9 10 -32 154 -43
152 -12 -3 -14 7 -15 55 0 12 -3 22 -8 22 -4 0 -1 14 7 30 18 36 34 39 35 8 1
-19 2 -19 6 -5 3 10 11 16 18 13 7 -2 25 6 40 20 14 13 30 22 35 19 4 -3 10 1
13 7 3 10 9 10 26 0 20 -12 23 -11 28 8 3 11 11 19 17 17 6 -2 18 6 28 17 17
21 17 21 18 -6 0 -27 19 -50 21 -26 3 41 17 -50 19 -122 l2 -85 14 79 c14 78
34 116 61 116 7 0 13 7 13 15 0 8 7 15 15 15 12 0 13 -4 5 -19 -17 -33 -11
-35 15 -5 14 16 25 33 25 38 0 5 8 0 18 -10 9 -10 24 -19 32 -19 8 0 14 -5 13
-11 -2 -11 52 -12 63 -1 4 4 2 7 -4 7 -7 0 -12 4 -12 9 0 17 96 32 193 31 34
-1 47 3 47 13 0 20 48 14 93 -13 l37 -22 -10 27 c-15 39 -7 41 36 9 l37 -29
-6 27 c-7 26 -6 27 19 18 14 -6 36 -10 50 -10 14 0 39 -7 56 -16 27 -14 30
-20 25 -48 -4 -24 -1 -33 9 -33 11 0 13 9 8 34 -7 39 12 47 22 9 6 -25 6 -25
27 -5 24 22 41 25 34 6 -4 -10 3 -12 24 -9 16 2 47 -5 71 -16 59 -29 98 -21
98 19 0 11 5 17 10 14 6 -3 10 -1 10 4 0 6 -5 11 -11 11 -6 0 -9 6 -7 12 5 13
-19 43 -34 43 -5 0 -12 5 -16 11 -13 21 -90 51 -119 47 -56 -8 -106 -2 -131
17 -14 11 -31 20 -39 20 -7 0 -16 7 -19 15 -4 8 -12 15 -18 15 -7 0 -31 9 -54
20 -22 11 -46 20 -52 20 -5 0 -10 5 -10 10 0 6 -7 10 -15 10 -8 0 -15 -5 -15
-11 0 -8 -5 -8 -15 1 -14 12 -16 11 -14 -7 0 -7 -33 -23 -58 -29 -16 -3 -17 8
-1 24 19 19 -8 15 -39 -5 -24 -16 -26 -16 -21 -1 11 27 -32 31 -59 6 l-23 -21
0 27 c0 23 -3 27 -17 21 -32 -14 -73 -13 -73 2 0 20 -16 16 -33 -10 -13 -18
-16 -19 -16 -4 -1 19 -21 24 -21 5 0 -9 -3 -9 -12 0 -9 9 -17 5 -35 -14 -12
-14 -23 -29 -23 -33 0 -5 -9 -11 -20 -14 -20 -5 -26 3 -13 17 11 11 12 36 1
36 -6 0 -8 -6 -5 -14 3 -8 -1 -17 -9 -20 -8 -3 -14 -12 -14 -21 0 -13 -2 -14
-14 -3 -17 16 -2 52 17 42 7 -4 3 2 -8 13 l-20 20 -7 -21 c-3 -12 -7 -16 -7
-11 -1 6 -5 3 -11 -5 -12 -20 -21 -8 -22 29 -1 18 -5 34 -9 37 -4 2 -11 25
-15 50 -4 30 -11 44 -19 40 -8 -3 -11 2 -8 13 3 13 -3 20 -21 25 -14 3 -26 11
-26 17 0 6 -9 8 -20 4 -12 -4 -20 -2 -20 5 0 16 -26 41 -34 33 -12 -12 -48
-14 -40 -2 4 7 1 10 -7 7 -8 -3 -13 -11 -11 -17 1 -7 -2 -10 -7 -6 -6 3 -7 13
-4 22 4 10 2 14 -4 10 -6 -4 -14 -1 -16 5 -4 9 -6 8 -6 -2 -1 -9 -9 -16 -20
-16 -13 0 -17 6 -13 21 4 14 -6 8 -34 -21 -26 -27 -47 -41 -61 -39 -19 1 -23
-4 -23 -24 0 -19 -3 -22 -9 -12 -5 7 -13 11 -19 7 -5 -3 -12 1 -16 9 -9 25
-29 17 -24 -10 4 -17 1 -25 -9 -25 -9 0 -13 6 -10 13 2 6 -1 18 -9 24 -10 10
-12 7 -9 -15 3 -27 -10 -52 -27 -52 -5 0 -6 5 -3 10 8 13 -22 43 -35 35 -6 -3
-10 4 -10 17 0 14 3 18 8 11 5 -8 13 -6 29 7 12 9 19 20 16 24 -4 3 10 6 30 6
34 0 42 7 38 33 0 4 4 7 9 7 6 0 10 6 10 14 0 8 5 16 10 18 9 3 17 33 19 76 1
6 6 12 12 12 5 0 8 -4 4 -10 -6 -9 33 -55 41 -48 2 2 4 17 6 34 2 35 -17 74
-37 74 -23 0 -23 60 0 113 9 21 10 38 4 49 -6 11 -5 19 2 23 14 9 21 1 23 -29
1 -27 10 -33 21 -16 4 6 -1 22 -10 37 -11 16 -13 29 -7 35 6 6 11 -2 15 -21 4
-17 13 -31 21 -31 17 0 27 55 12 70 -7 7 -5 10 6 10 9 0 19 -6 21 -12 4 -9 6
-8 6 2 1 9 -3 20 -8 25 -6 6 -3 25 7 48 12 26 23 37 39 37 12 0 28 6 35 13 7
6 26 12 41 11 15 -1 30 3 33 7 3 5 14 9 24 9 10 0 24 8 29 18 6 9 11 12 11 4
0 -17 40 8 40 25 0 6 5 15 12 19 7 4 8 3 4 -4 -4 -7 -5 -12 -2 -12 3 0 7 4 10
9 7 11 -28 51 -46 51 -16 0 -48 50 -48 74 0 9 -6 19 -14 22 -20 8 -49 72 -43
96 3 12 -2 27 -14 39 -21 21 -26 44 -6 33 8 -5 8 -2 -2 9 -7 9 -22 17 -32 17
-11 0 -19 7 -19 15 0 8 -4 15 -10 15 -5 0 -7 7 -4 15 5 11 2 13 -10 9 -9 -3
-16 -2 -16 4 0 6 4 12 9 14 5 2 7 16 4 31 -4 19 -10 26 -19 23 -8 -3 -14 -1
-14 5 0 6 -5 7 -10 4 -14 -9 -1 47 13 56 5 4 6 12 3 18 -4 6 -2 11 4 11 6 0 9
4 5 9 -3 5 -1 12 4 15 5 3 7 20 6 38 -1 18 1 40 6 49 4 8 9 26 11 40 2 13 7
30 12 38 5 8 4 16 -2 20 -15 9 -9 40 9 52 10 6 10 9 2 9 -17 0 -16 37 1 43 8
3 12 15 9 30 -3 14 0 35 7 47 9 17 9 24 0 30 -17 10 -2 57 21 63 17 5 20 13
18 74 -1 46 -8 79 -21 103 -14 24 -18 45 -14 69 4 24 0 42 -14 62 -24 33 -25
48 -5 55 8 4 15 17 15 30 0 15 -6 24 -15 24 -8 0 -15 5 -15 11 0 6 7 9 15 5
19 -7 19 3 0 28 -18 24 -20 47 -3 43 6 -1 14 6 16 17 2 11 0 16 -7 12 -6 -4
-11 -3 -11 3 0 5 -3 18 -6 28 -5 15 -4 15 5 3 8 -12 11 -12 17 4 4 11 1 22 -7
28 -11 7 -11 11 -1 15 6 2 12 14 11 26 0 21 -1 21 -9 2 -8 -19 -9 -19 -9 2 -1
12 4 25 10 29 6 3 8 17 4 32 -3 14 -1 28 5 32 8 5 8 15 -1 36 -6 16 -13 44
-15 63 -2 18 -11 42 -20 52 -9 11 -14 19 -10 19 4 0 2 9 -4 19 -7 14 -7 20 2
23 7 3 9 17 4 42 -4 22 -12 36 -19 33 -11 -3 -37 33 -41 58 -3 20 -59 74 -79
77 -17 2 -22 11 -25 42 -1 21 3 46 10 55 12 14 11 15 -5 2 -16 -13 -20 -13
-29 0 -7 11 -8 9 -3 -6 20 -55 19 -58 -6 -52 -13 4 -30 7 -36 7 -7 0 -13 9
-13 20 0 11 -5 20 -12 20 -6 0 -8 3 -5 7 4 3 -2 12 -13 20 -14 10 -25 11 -39
3 -18 -9 -20 -7 -19 22 1 18 -4 34 -10 36 -7 2 -12 8 -12 13 0 6 4 8 8 5 4 -2
8 4 8 15 0 13 -5 18 -14 14 -10 -3 -12 0 -8 10 3 9 -1 18 -9 21 -7 3 -11 12
-8 20 3 8 -1 14 -8 14 -11 0 -11 3 1 10 12 7 12 10 1 10 -8 0 -11 6 -6 18 5
13 3 14 -5 6 -7 -7 -12 -28 -13 -48 -1 -20 -4 -36 -7 -36 -12 0 -30 24 -30 41
0 10 -3 19 -8 21 -4 2 -15 21 -23 43 -12 30 -13 44 -5 51 20 18 37 5 25 -18
-12 -22 -3 -40 10 -19 11 18 25 -4 17 -26 -5 -13 -9 -13 -22 -2 -12 10 -12 6
3 -23 12 -24 19 -31 21 -20 2 10 8 27 14 39 16 32 -10 110 -45 135 -28 20 -57
18 -57 -3 0 -6 -9 0 -20 14 -22 28 -69 44 -80 27 -8 -12 -40 -3 -40 12 0 5 -4
6 -10 3 -5 -3 -10 -2 -10 4 0 10 -68 24 -113 23 -15 0 -25 3 -22 7 2 5 -18 7
-45 5 -28 -2 -50 1 -50 6 0 6 6 11 13 11 6 1 -6 5 -28 9 -23 5 -42 4 -46 -2
-3 -5 -12 -2 -19 7 -7 9 -9 15 -4 14 20 -3 31 2 31 14 0 11 -10 12 -46 5 -95
-19 -97 -19 -81 -8 8 5 25 10 38 10 13 0 21 4 17 9 -3 6 4 15 15 21 11 6 20
16 20 22 0 6 -9 3 -20 -7 -19 -18 -57 -14 -45 5 3 5 2 10 -3 10 -6 0 -12 -7
-16 -15 -3 -9 0 -15 9 -15 8 0 15 -4 15 -10 0 -5 -9 -10 -20 -10 -11 0 -20 6
-20 13 0 8 -11 12 -29 11 -24 -2 -29 2 -26 18 3 12 0 18 -8 15 -15 -6 -47 11
-47 24 0 6 7 3 17 -6 15 -16 17 -16 26 0 8 14 11 15 18 4 6 -10 9 -6 9 14 0
16 -4 26 -10 22 -10 -6 -2 25 9 35 3 3 12 16 19 28 12 22 12 23 -10 17 -22 -6
-22 -5 -4 9 10 9 23 13 27 10 5 -3 9 0 9 6 0 6 -8 9 -18 6 -12 -4 -23 3 -35
24 -10 16 -23 35 -30 42 -7 7 -19 22 -27 32 -15 19 -15 19 17 1 17 -10 31 -21
30 -24 -1 -3 3 -7 8 -9 6 -2 11 4 13 12 2 8 -6 17 -17 21 -12 3 -21 10 -21 15
0 10 28 3 47 -13 10 -7 9 -15 -2 -38 -14 -26 -14 -28 2 -22 13 5 15 3 9 -13
-6 -16 -5 -17 6 -6 16 16 17 34 3 45 -6 5 -1 7 10 5 12 -2 19 -11 19 -21 -1
-9 2 -17 7 -17 21 0 -1 53 -34 83 -11 9 -15 17 -9 17 7 0 12 4 12 9 0 6 -17
12 -37 14 -31 3 -29 4 15 5 50 2 76 21 30 23 -17 0 -13 4 17 16 47 19 88 46
65 42 -8 -1 -22 0 -30 4 -31 11 -60 15 -60 7 0 -4 -6 -10 -13 -13 -8 -3 -14 1
-14 9 0 14 2 15 77 34 24 7 54 19 65 27 22 16 20 16 -60 -3 -45 -11 -26 13 20
26 25 7 45 17 45 22 0 5 -10 4 -21 -3 -12 -6 -32 -9 -45 -6 -13 2 -21 0 -18
-4 3 -5 -2 -9 -11 -9 -10 0 -13 5 -9 13 5 7 1 6 -10 -3 -17 -13 -18 -13 -15 4
4 19 18 29 54 41 16 5 17 8 5 15 -8 5 -17 7 -21 4 -14 -8 -22 18 -24 80 -3 69
-22 156 -35 156 -14 0 -21 -18 -10 -25 12 -7 4 -25 -11 -25 -6 0 -7 5 -4 10 4
6 2 16 -3 23 -16 19 -25 77 -13 77 10 0 15 -20 12 -47 -3 -23 7 -13 18 17 6
18 6 28 1 25 -6 -4 -10 -1 -10 4 0 11 11 14 40 12 9 0 10 2 3 5 -14 6 3 54 19
54 5 0 6 5 3 10 -4 7 -14 2 -26 -12 -48 -59 -70 -71 -85 -46 -4 7 -3 8 4 4 6
-4 22 2 34 14 23 20 29 54 14 79 -5 7 -5 16 0 20 17 12 14 33 -6 38 -11 3 -20
10 -20 15 0 5 9 7 19 3 11 -3 23 0 27 6 4 8 3 9 -4 5 -7 -4 -12 -2 -12 3 0 6
5 11 11 11 6 0 23 10 37 21 l27 21 -25 -7 c-34 -11 -62 -9 -71 7 -7 10 -9 9
-9 -4 0 -10 -5 -18 -10 -18 -7 0 -7 7 0 20 6 11 15 18 20 15 11 -7 40 5 40 17
0 6 -6 5 -15 -2 -11 -9 -15 -9 -15 -1 0 7 -4 9 -10 6 -5 -3 -10 3 -10 14 0 12
-5 21 -12 21 -6 0 -3 6 8 14 17 13 20 12 24 -7 5 -19 7 -20 13 -5 3 10 0 24
-8 32 -21 20 -19 24 11 18 16 -3 23 -9 20 -18 -3 -8 0 -14 7 -14 8 0 7 -4 -3
-11 -13 -9 -13 -10 0 -7 16 5 23 79 8 89 -12 8 32 50 44 43 4 -3 8 0 8 5 0 15
-13 14 -29 -1 -11 -11 -13 -10 -8 5 4 9 2 17 -3 17 -5 0 -14 -8 -19 -17 -9
-16 -10 -15 -11 5 0 16 7 26 20 29 18 5 24 17 23 50 -1 7 3 11 7 8 12 -7 16 3
24 50 5 28 4 35 -3 25 -11 -16 -27 -7 -16 9 8 13 35 15 35 2 0 -17 26 -19 51
-4 22 13 22 14 2 10 -16 -4 -21 0 -20 14 1 13 9 19 24 19 13 0 23 6 23 13 0 8
4 7 10 -3 8 -13 15 -9 8 5 -2 2 8 12 20 21 20 13 23 22 18 48 -4 20 -3 26 3
17 9 -14 46 -18 108 -10 31 4 47 19 21 19 -24 0 3 13 34 17 17 2 37 8 44 14 7
6 18 8 24 4 5 -3 13 1 16 9 3 9 10 14 14 11 5 -3 11 -1 15 5 4 6 11 8 16 5 5
-4 9 -2 9 4 0 5 -5 11 -12 13 -7 3 -8 10 -4 17 7 11 10 11 17 0 7 -11 9 -11 9
3 0 9 17 27 38 39 53 34 61 35 27 5 -16 -14 -33 -26 -37 -26 -4 0 -5 -9 -3
-20 2 -11 0 -20 -4 -20 -5 0 -11 -8 -13 -17 -4 -14 2 -18 24 -20 28 -2 38 10
18 22 -5 3 -10 1 -10 -5 0 -6 -5 -8 -11 -4 -6 3 2 14 20 25 19 11 28 24 25 33
-6 17 53 28 61 12 3 -7 7 -7 11 2 3 6 11 12 17 12 5 0 8 -3 4 -6 -3 -3 -2 -17
3 -30 8 -19 6 -24 -6 -24 -10 0 -14 6 -11 14 4 10 1 13 -9 9 -8 -3 -21 0 -29
7 -9 7 -18 10 -21 7 -9 -9 22 -37 40 -37 9 0 16 -7 16 -15 0 -13 4 -14 21 -5
16 9 19 18 15 36 -5 17 -2 24 9 24 8 0 15 -4 15 -9 0 -6 12 -9 28 -7 15 1 36
-1 48 -5 25 -9 40 -1 47 26 4 17 5 17 6 -4 1 -17 5 -22 17 -17 9 4 23 1 30 -5
17 -14 19 2 2 19 -9 9 -6 12 16 12 15 0 25 4 21 10 -3 6 -1 10 4 10 6 0 11 -5
11 -12 0 -6 9 -3 20 7 15 14 20 15 20 4 0 -11 2 -11 8 -2 11 17 72 29 72 15 0
-6 -4 -13 -9 -16 -11 -7 -21 -46 -12 -46 4 0 14 15 22 33 12 27 20 32 53 35
22 2 42 -2 46 -8 6 -9 14 -8 31 3 40 24 79 30 79 11 0 -19 22 -14 28 7 3 11 2
11 -7 -1 -6 -8 -11 -10 -11 -5 0 6 10 19 22 29 18 15 20 16 15 2 -4 -9 -3 -16
1 -16 4 0 17 -3 30 -6 16 -5 22 -2 22 10 0 9 5 16 10 16 6 0 10 -4 10 -10 0
-5 7 -7 15 -4 8 4 15 1 15 -4 0 -6 14 -10 32 -10 18 1 34 -4 36 -10 2 -7 8
-12 13 -12 15 0 10 19 -11 37 -14 13 -17 20 -8 30 13 16 25 17 34 1z m-156
-18 c0 -5 -7 -7 -15 -4 -8 4 -15 8 -15 10 0 2 7 4 15 4 8 0 15 -4 15 -10z
m-273 -26 c-3 -3 -12 -4 -19 -1 -8 3 -5 6 6 6 11 1 17 -2 13 -5z m543 2 c0 -3
-4 -8 -10 -11 -5 -3 -10 -1 -10 4 0 6 5 11 10 11 6 0 10 -2 10 -4z m-673 -12
c-3 -3 -12 -4 -19 -1 -8 3 -5 6 6 6 11 1 17 -2 13 -5z m-640 -49 c0 -8 -4 -12
-9 -9 -5 3 -6 10 -3 15 9 13 12 11 12 -6z m159 8 c-4 -4 -29 -9 -54 -10 -34
-1 -41 1 -27 7 25 11 91 13 81 3z m344 -3 c0 -5 -2 -10 -4 -10 -3 0 -8 5 -11
10 -3 6 -1 10 4 10 6 0 11 -4 11 -10z m50 0 c0 -5 -4 -10 -10 -10 -5 0 -10 5
-10 10 0 6 5 10 10 10 6 0 10 -4 10 -10z m-600 -14 c0 -3 -4 -8 -10 -11 -5 -3
-10 -1 -10 4 0 6 5 11 10 11 6 0 10 -2 10 -4z m121 -6 c5 0 9 -4 9 -10 0 -5
-9 -10 -21 -10 -13 0 -18 4 -14 13 4 6 0 4 -8 -5 -14 -18 -37 -24 -37 -12 0
13 35 33 48 29 8 -3 18 -5 23 -5z m-91 -10 c0 -5 -7 -10 -15 -10 -8 0 -15 -8
-16 -17 0 -11 -3 -13 -6 -5 -2 6 -9 10 -14 6 -5 -3 -9 -1 -9 3 0 5 12 14 28
20 15 6 28 11 30 12 1 1 2 -3 2 -9z m1440 -5 c0 -9 -6 -12 -16 -8 -13 5 -13 7
-2 14 17 11 18 11 18 -6z m-1430 -25 c0 -5 -7 -10 -15 -10 -8 0 -15 5 -15 10
0 6 7 10 15 10 8 0 15 -4 15 -10z m1475 -18 c-8 -8 -25 10 -19 20 4 6 9 5 15
-3 4 -7 6 -15 4 -17z m-1619 -50 c-14 -15 -15 -13 -3 17 8 23 13 28 15 16 2
-10 -3 -25 -12 -33z m114 25 c8 -7 16 -19 18 -27 1 -10 -3 -8 -14 5 -8 11 -20
19 -25 18 -5 -2 -9 2 -9 7 0 13 12 12 30 -3z m110 9 c0 -2 -11 -6 -25 -8 -14
-3 -25 -1 -25 3 0 5 11 9 25 9 14 0 25 -2 25 -4z m1458 -18 c7 -7 12 -19 11
-27 0 -11 -2 -12 -6 -3 -2 6 -11 12 -19 12 -8 0 -14 7 -14 15 0 18 12 19 28 3z
m-1718 -22 c0 -3 -4 -8 -10 -11 -5 -3 -10 -1 -10 4 0 6 5 11 10 11 6 0 10 -2
10 -4z m-50 -16 c12 -8 11 -10 -7 -10 -13 0 -23 5 -23 10 0 13 11 13 30 0z
m77 -22 c-3 -8 -6 -5 -6 6 -1 11 2 17 5 13 3 -3 4 -12 1 -19z m-32 -28 c-20
-22 -35 -26 -35 -8 0 20 33 49 44 38 6 -6 3 -16 -9 -30z m1835 -10 c-8 -5 -19
-10 -25 -10 -5 0 -3 5 5 10 8 5 20 10 25 10 6 0 3 -5 -5 -10z m150 -60 c-8 -5
-22 -9 -30 -9 -10 0 -8 3 5 9 27 12 43 12 25 0z m37 -55 c0 -8 -4 -12 -9 -9
-5 3 -6 10 -3 15 9 13 12 11 12 -6z m-2157 -15 c-20 -13 -33 -13 -25 0 3 6 14
10 23 10 15 0 15 -2 2 -10z m2173 -30 c-5 -19 -23 -29 -23 -12 0 7 20 32 26
32 1 0 0 -9 -3 -20z m21 -39 c3 -5 -1 -11 -9 -14 -9 -4 -12 -1 -8 9 6 16 10
17 17 5z m110 -80 c3 -4 3 -11 0 -14 -8 -8 -34 3 -34 14 0 11 27 12 34 0z
m160 -177 c3 -8 2 -12 -4 -9 -6 3 -10 10 -10 16 0 14 7 11 14 -7z m-2564 -74
c0 -5 -2 -10 -4 -10 -3 0 -8 5 -11 10 -3 6 -1 10 4 10 6 0 11 -4 11 -10z
m2590 -25 c0 -8 -4 -15 -10 -15 -5 0 -7 7 -4 15 4 8 8 15 10 15 2 0 4 -7 4
-15z m-2549 -84 c3 -14 -2 -26 -10 -29 -10 -3 -12 0 -7 13 5 15 4 16 -8 6 -17
-15 -28 -1 -15 19 12 20 11 43 -1 35 -14 -9 -12 3 3 20 10 11 14 9 23 -13 7
-15 14 -38 15 -51z m2781 17 c-8 -8 -9 -4 -5 13 4 13 8 18 11 10 2 -7 -1 -18
-6 -23z m-4 -57 c-7 -12 -16 -21 -21 -21 -4 0 0 11 10 24 22 29 30 27 11 -3z
m-2893 -10 c3 -5 1 -12 -5 -16 -5 -3 -10 1 -10 9 0 18 6 21 15 7z m2945 -21
c-6 -12 -14 -19 -17 -17 -2 3 1 15 7 27 6 12 14 19 17 17 2 -3 -1 -15 -7 -27z
m-250 -1 c0 -6 -4 -7 -10 -4 -5 3 -10 11 -10 16 0 6 5 7 10 4 6 -3 10 -11 10
-16z m-2635 1 c3 -5 1 -10 -4 -10 -6 0 -11 5 -11 10 0 6 2 10 4 10 3 0 8 -4
11 -10z m2605 -20 c0 -11 -4 -20 -9 -20 -7 0 -8 17 -2 38 4 10 11 -2 11 -18z
m-2655 -30 c3 -5 1 -10 -4 -10 -6 0 -11 5 -11 10 0 6 2 10 4 10 3 0 8 -4 11
-10z m65 0 c0 -5 -8 -10 -17 -10 -15 0 -16 2 -3 10 19 12 20 12 20 0z m2620
-10 c-8 -14 -8 -20 0 -20 6 0 8 -5 5 -10 -5 -8 -11 -7 -21 1 -11 9 -14 8 -14
-2 0 -10 -3 -10 -11 -2 -13 13 -5 43 11 43 6 0 8 -6 5 -12 -3 -7 0 -5 7 5 18
24 31 22 18 -3z m-2634 -31 c37 -23 39 -27 23 -49 -9 -13 -10 -12 -5 3 3 11 0
17 -9 17 -8 0 -14 6 -12 13 1 6 -6 11 -15 11 -10 -1 -15 3 -11 9 4 6 0 8 -11
4 -10 -4 -15 -3 -11 3 9 14 13 13 51 -11z m24 11 c0 -5 -2 -10 -4 -10 -3 0 -8
5 -11 10 -3 6 -1 10 4 10 6 0 11 -4 11 -10z m2869 -64 c-9 -8 -10 -7 -5 7 3
10 7 24 7 30 1 7 3 4 6 -7 3 -10 -1 -23 -8 -30z m-259 23 c0 -5 -4 -7 -10 -4
-5 3 -10 1 -10 -4 0 -6 -4 -11 -10 -11 -5 0 -7 7 -4 15 7 17 34 21 34 4z
m-2553 -19 c-3 -11 -1 -23 5 -26 10 -6 4 -131 -6 -142 -5 -4 -10 62 -8 89 0 3
-3 23 -8 44 -9 41 -6 55 12 55 6 0 8 -9 5 -20z m2764 -23 l-24 -22 19 27 c10
14 21 24 23 22 3 -3 -6 -15 -18 -27z m-2806 -7 c-3 -5 -10 -10 -16 -10 -5 0
-9 5 -9 10 0 6 7 10 16 10 8 0 12 -4 9 -10z m2823 -53 c-11 -31 -24 -54 -29
-51 -4 2 -22 -10 -38 -28 -53 -58 -64 -68 -69 -63 -5 4 30 45 89 104 14 14 34
43 44 64 26 55 28 40 3 -26z m50 21 c-13 -25 -19 -44 -21 -70 -1 -9 -4 -16 -7
-16 -20 2 -29 -4 -24 -15 3 -8 -2 -20 -11 -27 -8 -7 -15 -10 -15 -6 0 4 -11
-1 -25 -10 -38 -25 -39 -12 -4 32 18 21 29 31 26 22 -3 -9 0 -19 8 -22 9 -3
12 0 9 9 -3 8 1 22 10 30 9 9 16 22 16 29 0 13 37 66 46 66 3 0 -1 -10 -8 -22z
m139 0 c-3 -8 -6 -5 -6 6 -1 11 2 17 5 13 3 -3 4 -12 1 -19z m-3003 -67 c-4
-3 -9 0 -11 7 -7 18 -19 15 -20 -7 -1 -14 3 -17 18 -14 10 3 19 0 19 -6 0 -6
-5 -11 -11 -11 -5 0 -7 -6 -3 -12 11 -18 12 -48 2 -42 -5 4 -7 12 -5 19 3 6
-3 19 -14 28 -10 9 -19 24 -19 33 0 14 -3 14 -15 4 -9 -7 -15 -8 -15 -2 0 5 7
13 16 16 10 4 14 14 11 26 -7 26 29 28 37 3 4 -15 5 -15 4 2 -1 39 5 40 9 1 3
-21 1 -41 -3 -45z m2666 75 c0 -2 -8 -10 -17 -17 -16 -13 -17 -12 -4 4 13 16
21 21 21 13z m76 -44 l-29 -27 23 32 c13 18 26 30 29 28 3 -3 -8 -18 -23 -33z
m-32 -3 c-10 -12 -32 -30 -49 -41 -17 -12 -11 -4 15 20 49 45 64 54 34 21z
m266 -10 c-9 -32 -36 -79 -45 -79 -3 0 1 13 10 30 8 16 16 33 16 37 1 11 19
43 24 43 2 0 0 -14 -5 -31z m-450 7 c0 -2 -7 -7 -16 -10 -8 -3 -12 -2 -9 4 6
10 25 14 25 6z m-19 -36 c-22 -19 -41 -26 -41 -15 0 5 51 34 60 34 3 0 -6 -9
-19 -19z m480 -42 c-5 -14 -16 -25 -25 -25 -21 0 -20 2 7 30 27 28 30 27 18
-5z m-3086 4 c-3 -3 -11 0 -18 7 -9 10 -8 11 6 5 10 -3 15 -9 12 -12z m3121
-14 c-8 -12 -15 -26 -15 -31 -1 -31 -96 -137 -122 -137 -6 0 -7 -5 -3 -12 4
-7 3 -8 -4 -4 -8 5 0 20 24 44 20 20 38 36 41 34 3 -2 14 12 25 30 11 18 26
36 32 40 8 5 7 8 -2 8 -9 0 -6 10 10 29 27 33 36 33 14 -1z m-396 18 c0 -2 -7
-7 -16 -10 -8 -3 -12 -2 -9 4 6 10 25 14 25 6z m9 -64 c-19 -20 -37 -41 -41
-46 -4 -5 -5 0 -2 11 7 25 63 88 71 79 4 -3 -9 -23 -28 -44z m331 14 c0 -15
-64 -91 -77 -91 -4 0 -20 -12 -35 -27 -19 -20 -22 -28 -12 -30 11 -2 10 -6 -4
-14 -51 -32 26 89 102 159 23 21 26 21 26 3z m-470 -20 c0 -12 -13 -14 -40 -6
-4 1 24 16 38 19 1 1 2 -5 2 -13z m76 -5 c0 -11 -5 -17 -13 -14 -10 4 -11 9
-2 19 15 18 15 18 15 -5z m138 4 c-4 -8 -10 -15 -15 -15 -4 0 -6 7 -3 15 4 8
10 15 15 15 4 0 6 -7 3 -15z m41 -11 c-16 -14 -43 -36 -58 -50 -16 -14 -31
-23 -34 -20 -3 2 5 13 17 23 12 10 35 30 51 46 16 15 34 27 41 27 7 0 0 -12
-17 -26z m-418 10 c-3 -3 -12 -4 -19 -1 -8 3 -5 6 6 6 11 1 17 -2 13 -5z m101
-1 c-10 -2 -26 -2 -35 0 -10 3 -2 5 17 5 19 0 27 -2 18 -5z m218 -19 c-4 -9
-9 -15 -11 -12 -3 3 -3 13 1 22 4 9 9 15 11 12 3 -3 3 -13 -1 -22z m451 -16
c-15 -9 -19 -4 -11 16 5 14 9 15 15 5 5 -8 3 -17 -4 -21z m-590 6 c7 3 13 -1
13 -9 0 -18 -2 -18 -45 -1 -19 8 -35 11 -35 5 0 -5 -13 -9 -30 -9 -16 0 -30 5
-30 11 0 7 10 9 25 7 14 -3 28 -2 31 3 2 5 17 4 31 -2 15 -5 32 -8 40 -5z m47
-9 c3 -8 1 -15 -4 -15 -6 0 -10 7 -10 15 0 8 2 15 4 15 2 0 6 -7 10 -15z m306
0 c-7 -9 -15 -13 -19 -10 -3 3 1 10 9 15 21 14 24 12 10 -5z m202 -72 c-21
-40 -121 -138 -131 -127 -3 3 5 14 18 25 13 11 21 22 18 26 -7 7 -53 -47 -50
-58 1 -4 -9 -6 -22 -6 -26 0 -34 12 -12 20 7 3 5 6 -5 6 -10 1 -18 -3 -18 -9
0 -5 -8 -10 -17 -9 -15 0 -13 3 7 17 13 9 46 37 72 61 60 56 85 63 62 19 -33
-63 11 -42 48 23 12 22 25 39 30 39 4 0 8 8 9 18 0 9 3 12 5 5 3 -6 -4 -29
-14 -50z m54 19 c-4 -11 -14 -23 -22 -26 -12 -5 -12 -1 2 24 20 32 29 33 20 2z
m-3021 -2 c-11 -5 -29 -9 -40 -9 -17 -1 -17 1 -5 9 8 5 26 9 40 9 23 0 23 -1
5 -9z m-71 -28 c3 -5 -1 -9 -9 -9 -8 0 -15 4 -15 9 0 4 4 8 9 8 6 0 12 -4 15
-8z m2743 -27 c-20 -19 -42 -35 -49 -35 -14 0 61 69 76 70 5 0 -7 -16 -27 -35z
m83 -15 c0 -5 -5 -10 -11 -10 -5 0 -7 5 -4 10 3 6 8 10 11 10 2 0 4 -4 4 -10z
m280 -4 c0 -2 -9 -6 -20 -9 -11 -3 -18 -1 -14 4 5 9 34 13 34 5z m-327 -14 c4
9 6 8 6 -3 1 -22 -24 -32 -38 -15 -14 16 -2 29 15 15 8 -7 14 -6 17 3z m-77
-27 c-11 -8 -24 -15 -30 -15 -5 0 -1 7 10 15 10 8 24 14 29 14 6 0 1 -6 -9
-14z m424 5 c0 -5 -5 -10 -11 -10 -5 0 -7 -4 -4 -10 3 -5 -1 -10 -9 -10 -14 0
-14 3 -4 20 14 21 28 27 28 10z m-390 -4 c0 -2 -8 -10 -17 -17 -16 -13 -17
-12 -4 4 13 16 21 21 21 13z m-353 -32 c-3 -3 -12 -4 -19 -1 -8 3 -5 6 6 6 11
1 17 -2 13 -5z m46 -1 c-7 -2 -19 -2 -25 0 -7 3 -2 5 12 5 14 0 19 -2 13 -5z
m624 -15 c-3 -8 -6 -5 -6 6 -1 11 2 17 5 13 3 -3 4 -12 1 -19z m-551 3 c-8
-12 -66 -32 -66 -22 0 4 15 13 33 19 17 5 33 10 35 11 2 1 1 -3 -2 -8z m-1
-40 c-17 -15 -105 -44 -112 -37 -10 9 17 25 32 20 6 -3 27 2 46 10 40 18 46
19 34 7z m-2525 -56 c0 -5 -5 -3 -10 5 -5 8 -10 20 -10 25 0 6 5 3 10 -5 5 -8
10 -19 10 -25z m4 -30 c18 -14 15 -20 -7 -16 -5 1 -6 -3 -2 -9 9 -15 -37 -30
-52 -18 -9 7 -13 7 -13 -2 0 -8 -3 -10 -6 -7 -11 10 17 37 37 37 12 0 16 5 13
15 -8 19 5 19 30 0z m3269 -65 c3 -11 1 -20 -4 -20 -5 0 -9 9 -9 20 0 11 2 20
4 20 2 0 6 -9 9 -20z m-3356 -56 c-3 -3 -12 -4 -19 -1 -8 3 -5 6 6 6 11 1 17
-2 13 -5z m3253 -14 c0 -5 -4 -10 -9 -10 -6 0 -13 5 -16 10 -3 6 1 10 9 10 9
0 16 -4 16 -10z m-3180 -10 c0 -5 -2 -10 -4 -10 -3 0 -8 5 -11 10 -3 6 -1 10
4 10 6 0 11 -4 11 -10z m3215 -20 c3 -6 -1 -7 -9 -4 -18 7 -21 14 -7 14 6 0
13 -4 16 -10z m145 0 c0 -5 -4 -10 -10 -10 -5 0 -10 5 -10 10 0 6 5 10 10 10
6 0 10 -4 10 -10z m29 -33 c-1 -17 -2 -18 -6 -4 -2 9 -9 17 -15 17 -5 0 -7 -7
-4 -15 3 -8 9 -23 13 -32 4 -10 -5 -5 -19 12 l-26 29 22 12 c27 14 36 9 35
-19z m-2929 -107 c0 -5 -2 -10 -4 -10 -3 0 -8 5 -11 10 -3 6 -1 10 4 10 6 0
11 -4 11 -10z m140 -55 c7 -9 8 -15 2 -15 -5 0 -12 7 -16 15 -3 8 -4 15 -2 15
2 0 9 -7 16 -15z m-50 1 c0 -3 -4 -8 -10 -11 -5 -3 -10 -1 -10 4 0 6 5 11 10
11 6 0 10 -2 10 -4z m154 -12 c9 -3 16 -10 16 -15 0 -6 -9 -5 -20 1 -16 9 -20
8 -20 -6 0 -10 -3 -15 -6 -11 -7 6 2 37 10 37 2 0 11 -3 20 -6z m-76 -45 c-3
-8 -7 -3 -11 10 -4 17 -3 21 5 13 5 -5 8 -16 6 -23z m2892 17 c0 -2 -7 -7 -16
-10 -8 -3 -12 -2 -9 4 6 10 25 14 25 6z m-2830 -121 c0 -5 -5 -3 -10 5 -5 8
-10 20 -10 25 0 6 5 3 10 -5 5 -8 10 -19 10 -25z m-60 -55 c0 -5 -2 -10 -4
-10 -3 0 -8 5 -11 10 -3 6 -1 10 4 10 6 0 11 -4 11 -10z m150 -16 c0 -14 -4
-23 -9 -20 -5 3 -7 15 -4 26 7 28 13 25 13 -6z m2895 6 c3 -5 1 -10 -4 -10 -6
0 -11 5 -11 10 0 6 2 10 4 10 3 0 8 -4 11 -10z m-2930 -19 c3 -5 1 -12 -5 -16
-5 -3 -10 1 -10 9 0 18 6 21 15 7z m58 -87 c-8 -22 -30 -11 -26 15 2 14 0 20
-3 14 -3 -7 -10 -13 -15 -13 -6 0 -7 5 -4 10 6 10 -7 14 -32 11 -7 -1 -13 4
-13 12 0 9 11 13 35 11 26 -2 38 1 43 14 4 12 8 5 13 -23 4 -22 5 -45 2 -51z
m-827 31 c20 -10 42 -13 68 -9 23 4 36 2 33 -3 -3 -5 9 -9 28 -8 19 0 35 -3
35 -7 0 -4 12 -8 26 -8 14 0 22 -4 19 -10 -4 -6 6 -8 24 -6 21 2 28 -1 24 -10
-3 -9 2 -11 16 -7 15 4 21 1 21 -11 0 -9 5 -16 10 -16 6 0 10 5 10 10 0 6 10
2 22 -10 12 -11 28 -20 35 -20 7 0 13 -6 14 -12 0 -10 2 -10 6 -1 3 8 13 3 30
-15 14 -15 31 -26 38 -24 19 4 12 -30 -8 -42 -12 -8 -23 -7 -38 2 -11 7 -39
12 -62 12 -23 -1 -64 2 -92 6 -123 17 -420 -1 -525 -31 -8 -2 -24 3 -35 11
-20 15 -20 15 4 35 13 10 18 19 12 19 -20 0 -11 19 12 23 20 4 20 4 -3 6 -19
1 -26 7 -26 21 0 11 4 20 9 20 5 0 7 9 4 19 -3 13 1 21 15 24 16 5 17 3 6 -11
-8 -10 -9 -13 -1 -9 6 4 14 3 18 -3 4 -6 11 -7 17 -4 5 4 6 9 2 13 -5 3 -17
16 -27 28 l-18 21 37 -8 c23 -5 41 -5 44 0 9 15 115 17 113 3 -2 -7 2 -13 7
-13 6 0 10 7 10 16 0 8 4 13 9 9 5 -3 12 -1 16 5 8 13 7 13 41 -5z m929 -85
c7 -12 -12 -12 -40 0 -18 8 -17 9 7 9 15 1 30 -3 33 -9z m-1240 -132 c6 -4 2
-8 -7 -8 -10 0 -18 7 -18 17 0 9 3 12 8 7 4 -5 12 -12 17 -16z m497 2 c34 -7
74 -18 88 -25 14 -7 40 -19 58 -25 17 -7 32 -16 32 -21 0 -5 6 -9 14 -9 7 0
19 -7 26 -15 10 -12 10 -15 -4 -15 -9 0 -16 -4 -16 -10 0 -5 -5 -10 -11 -10
-6 0 -8 7 -5 16 5 14 4 15 -9 4 -9 -7 -22 -9 -32 -4 -10 4 -22 8 -28 9 -5 0
-17 5 -25 10 -8 5 -43 10 -76 11 -34 1 -65 3 -70 6 -5 2 -28 3 -51 2 -33 -1
-43 3 -44 15 -1 14 -2 14 -6 -1 -4 -14 -8 -15 -29 -6 -26 12 -31 24 -11 31 6
3 1 6 -13 7 -25 1 -25 1 -2 10 12 5 22 13 22 17 0 14 123 15 192 3z m308 6 c0
-2 -7 -9 -15 -16 -12 -10 -15 -10 -15 4 0 9 7 16 15 16 8 0 15 -2 15 -4z m-49
-143 c13 -15 11 -16 -11 -10 -14 4 -29 7 -33 7 -5 0 -5 5 -2 10 9 15 31 12 46
-7z m-347 -12 c3 -4 19 -11 36 -14 51 -11 36 -53 -20 -58 -30 -3 -35 -1 -38
19 -2 15 2 22 12 22 9 0 16 5 16 10 0 6 -7 10 -15 10 -8 0 -15 5 -15 10 0 12
17 13 24 1z m227 -62 c13 -11 32 -18 42 -15 13 3 17 0 13 -10 -4 -10 2 -14 19
-14 14 0 25 -4 25 -10 0 -5 6 -10 14 -10 13 0 13 -4 0 -27 -7 -16 -14 -40 -14
-55 0 -23 -4 -28 -25 -28 -13 0 -30 -6 -37 -13 -7 -8 -20 -12 -29 -10 -10 3
-26 0 -36 -6 -15 -10 -12 -11 15 -6 18 4 32 2 32 -3 0 -5 -15 -17 -32 -26 -26
-12 -28 -16 -12 -16 11 0 24 4 30 9 5 4 24 11 43 15 27 5 31 4 22 -8 -9 -11 0
-15 46 -24 32 -7 80 -11 106 -9 43 2 48 0 43 -16 -3 -14 -1 -17 12 -12 9 4 22
7 27 8 6 1 13 7 17 12 12 16 9 -24 -3 -47 -9 -16 -13 -18 -19 -7 -7 10 -13 8
-27 -8 -21 -24 -71 -44 -58 -23 6 9 4 11 -4 6 -7 -5 -16 -18 -21 -30 -8 -20
-9 -19 -21 12 -14 33 -29 43 -29 18 0 -8 6 -16 13 -19 9 -3 9 -9 -1 -27 -12
-20 -12 -21 7 -15 16 5 19 3 15 -9 -6 -17 -32 -29 -44 -21 -5 3 -7 12 -3 20 7
20 -7 19 -24 -2 -13 -16 -14 -15 -8 12 4 17 11 32 16 33 19 7 -2 19 -26 14
-18 -3 -25 -11 -25 -28 0 -30 -11 -31 -28 -3 -10 15 -10 19 -1 14 8 -5 10 -4
5 3 -4 7 -24 12 -44 11 -20 0 -30 -3 -22 -6 35 -14 39 -43 5 -43 -16 0 -25 -6
-25 -15 0 -19 21 -19 46 0 25 19 48 19 40 0 -7 -20 11 -19 22 1 8 14 15 10 50
-25 47 -46 50 -51 23 -51 -11 0 -23 9 -26 21 -11 33 -18 14 -16 -41 1 -44 -1
-50 -19 -50 -11 0 -20 -4 -20 -9 0 -5 -3 -16 -6 -25 -4 -11 0 -16 15 -16 14 0
19 5 15 15 -7 17 13 20 35 6 11 -7 21 -3 38 15 12 13 29 24 38 24 8 0 15 5 15
11 0 5 5 7 11 4 5 -4 19 1 30 11 10 9 19 13 19 9 0 -5 6 -1 13 9 7 10 22 16
33 14 15 -3 19 -11 18 -48 0 -25 -4 -58 -8 -75 -4 -16 -9 -59 -12 -95 -2 -35
-8 -67 -13 -70 -5 -3 -8 -33 -8 -66 1 -44 -4 -73 -18 -98 -11 -20 -23 -36 -26
-36 -11 0 -19 -29 -13 -45 4 -8 10 -12 15 -9 5 3 6 -2 3 -10 -3 -8 -12 -12
-21 -9 -13 5 -13 3 -4 -15 8 -15 8 -23 0 -27 -7 -5 -4 -14 7 -26 22 -24 30
-86 9 -69 -25 21 -28 -10 -4 -37 13 -15 17 -22 9 -18 -10 5 -8 1 4 -13 16 -18
17 -24 5 -38 -7 -8 -14 -23 -15 -32 -2 -10 -6 -32 -9 -51 -3 -19 -9 -37 -14
-40 -4 -3 -12 -17 -16 -31 -4 -14 -15 -30 -24 -37 -13 -10 -13 -14 -3 -21 10
-7 8 -13 -8 -27 -11 -10 -20 -26 -20 -36 0 -10 -4 -21 -10 -24 -5 -3 -10 -19
-10 -35 0 -16 -11 -50 -24 -76 -13 -25 -21 -54 -19 -64 3 -10 0 -21 -6 -24 -6
-4 -11 -13 -11 -19 0 -7 4 -6 10 3 6 9 10 10 10 3 0 -6 -6 -18 -12 -25 -7 -7
-15 -40 -17 -73 -1 -32 -7 -69 -12 -81 -5 -16 -4 -26 6 -34 7 -6 17 -24 20
-40 6 -29 16 -31 58 -15 10 4 17 3 17 -4 0 -6 -4 -11 -10 -11 -22 0 -8 -18 18
-23 25 -5 28 -9 24 -36 -5 -35 7 -40 26 -11 15 24 42 16 43 -14 1 -16 2 -17 6
-3 2 9 13 17 24 17 11 0 18 4 14 9 -3 5 0 13 6 17 9 5 10 -2 6 -24 -4 -19 -2
-32 3 -32 6 0 10 -9 10 -20 0 -11 -6 -20 -14 -20 -18 0 -30 -61 -14 -72 22
-13 29 -9 22 16 -6 27 14 46 27 25 12 -19 11 -42 -1 -34 -5 3 -10 -1 -10 -9 0
-23 17 -20 25 4 7 21 20 26 29 12 3 -5 -5 -19 -17 -33 -13 -13 -21 -32 -19
-43 3 -11 0 -16 -7 -12 -6 4 -11 0 -11 -8 0 -19 -16 -21 -26 -4 -4 6 -2 14 4
16 7 2 12 16 11 30 0 15 -3 21 -6 15 -2 -7 -10 -13 -17 -13 -8 0 -11 -10 -8
-30 3 -19 0 -30 -8 -30 -8 0 -11 -12 -8 -35 4 -31 2 -34 -18 -29 -14 4 -23 0
-28 -12 -9 -22 2 -32 15 -14 8 11 12 12 16 2 2 -6 8 -10 12 -8 4 3 8 -4 8 -15
1 -10 -5 -19 -13 -19 -8 0 -14 -4 -14 -10 0 -5 5 -10 10 -10 6 0 10 -9 10 -21
0 -11 -5 -17 -10 -14 -6 4 -8 10 -5 15 3 4 -2 10 -9 13 -8 3 -16 1 -18 -5 -9
-25 -30 6 -26 38 3 24 1 30 -7 24 -7 -6 -14 -8 -16 -6 -2 2 -4 -11 -4 -30 0
-19 5 -34 10 -34 6 0 11 -9 12 -20 1 -11 -2 -20 -8 -20 -5 0 -9 6 -9 14 0 8
-4 16 -10 18 -5 2 -11 15 -12 31 -3 36 -18 35 -18 -2 0 -15 9 -40 21 -55 l20
-26 -23 2 c-13 2 -26 12 -29 23 -6 18 -7 18 -14 3 -4 -11 -1 -24 9 -33 9 -9
16 -13 16 -8 0 11 20 -20 20 -32 0 -5 -4 -4 -8 3 -8 12 -22 -6 -36 -51 -4 -13
-12 -16 -25 -12 -11 3 -26 -1 -35 -10 -21 -21 -20 -26 2 -19 15 5 15 4 -1 -6
-11 -7 -32 -9 -48 -6 -19 3 -28 2 -24 -4 3 -6 12 -10 20 -10 7 0 16 -7 19 -16
4 -12 2 -15 -9 -10 -12 4 -13 2 -3 -13 9 -15 8 -22 -5 -36 -9 -9 -17 -23 -17
-31 0 -8 -7 -17 -15 -20 -8 -4 -15 -18 -15 -33 0 -20 2 -23 10 -11 8 12 10 11
10 -7 0 -13 5 -23 11 -23 5 0 8 -4 5 -9 -8 -12 21 -34 34 -26 6 3 10 -3 10
-14 0 -12 -4 -21 -10 -21 -5 0 -10 -7 -10 -15 0 -10 6 -12 18 -8 14 5 15 4 6
-8 -7 -8 -10 -33 -7 -58 7 -66 -2 -88 -42 -102 -32 -12 -34 -14 -18 -31 8 -10
20 -15 24 -12 5 3 9 1 9 -4 0 -5 -11 -12 -25 -14 -14 -3 -25 -1 -25 3 0 5 -4
9 -8 9 -5 0 -9 -7 -9 -15 0 -8 7 -15 14 -15 8 0 12 -3 10 -7 -3 -5 -20 -8 -39
-8 -27 0 -34 4 -36 23 -2 12 -7 22 -12 22 -14 0 -19 -27 -7 -39 7 -7 7 -11 1
-11 -17 0 -59 53 -46 58 7 2 12 11 12 19 0 10 -6 13 -16 9 -14 -5 -15 -1 -9
26 11 52 11 63 -1 61 -18 -3 -24 35 -8 48 17 14 18 36 3 41 -5 2 -11 18 -11
36 -1 18 -4 35 -8 37 -5 3 -6 21 -3 40 4 27 1 35 -11 35 -9 0 -16 5 -16 11 0
7 9 5 24 -4 23 -15 24 -15 19 4 -4 12 2 25 13 34 17 13 17 14 2 9 -10 -3 -18
-1 -18 5 0 6 0 14 0 19 0 10 34 10 41 -1 11 -16 49 3 49 25 0 11 8 27 18 34
16 13 16 14 -2 7 -14 -4 -17 -2 -14 8 3 8 12 13 19 11 11 -3 11 -1 2 9 -10 10
-17 9 -33 -9 -21 -22 -27 -37 -10 -27 6 3 10 -3 10 -13 0 -21 -25 -36 -41 -26
-6 3 -5 11 2 20 11 14 2 19 -24 15 -5 -1 -5 3 -2 9 4 6 13 9 20 6 18 -6 37 15
25 29 -5 6 -5 16 0 25 7 10 10 11 10 3 0 -7 8 -13 19 -13 14 0 18 6 16 25 -2
14 1 25 5 25 5 0 7 28 6 63 -2 34 -1 55 1 45 2 -9 10 -19 18 -22 16 -6 11 16
-12 49 -17 26 -17 36 2 29 8 -4 15 -14 15 -23 0 -9 5 -22 12 -29 6 -6 13 -28
15 -49 2 -20 8 -42 13 -48 5 -6 7 -23 5 -37 -7 -36 12 -45 27 -13 10 22 9 28
-2 35 -8 5 -11 12 -8 16 4 3 0 13 -8 21 -11 12 -12 18 -3 29 7 9 8 14 1 14 -7
0 -8 10 -2 31 5 16 6 37 3 46 -4 11 -2 14 5 9 7 -4 12 -13 12 -21 0 -7 7 -16
16 -19 13 -5 14 -9 4 -21 -14 -17 -5 -50 11 -40 6 4 8 13 5 21 -3 8 -1 14 3
14 13 0 0 44 -16 53 -7 4 -13 17 -13 28 0 17 -3 18 -21 9 -26 -14 -36 -6 -19
15 10 12 10 15 -4 15 -9 0 -16 -5 -16 -11 0 -5 -5 -7 -10 -4 -6 4 -8 21 -4 42
5 29 4 34 -7 27 -25 -15 -49 -11 -64 13 -19 28 -32 29 -40 3 -8 -25 -27 -27
-24 -2 1 9 -1 25 -6 35 -10 24 4 37 16 14 12 -21 39 -22 39 -1 0 10 -6 14 -15
10 -8 -3 -19 2 -24 12 -9 15 -11 15 -26 -5 -9 -13 -24 -23 -34 -23 -10 0 -24
-11 -31 -25 -7 -14 -22 -25 -32 -25 -10 0 -18 -7 -18 -15 0 -8 -4 -15 -9 -15
-5 0 -8 16 -6 35 2 19 -1 35 -6 35 -5 0 -9 -12 -10 -27 l-1 -28 -8 25 c-8 24
-8 24 -9 3 -2 -35 -54 -24 -59 12 -6 40 -11 47 -33 40 -14 -5 -19 -3 -15 3 4
6 -2 16 -14 22 -11 6 -19 19 -17 31 2 25 -33 52 -40 31 -3 -6 -9 -10 -14 -6
-11 6 -12 25 -1 22 12 -2 42 14 42 23 0 14 -28 11 -33 -3 -2 -7 -7 -10 -11 -6
-4 3 -3 16 4 27 9 18 7 22 -14 31 -16 6 -24 15 -20 24 3 8 1 17 -5 21 -6 3
-11 17 -11 30 0 13 -4 27 -10 30 -5 3 -10 14 -10 25 0 10 -7 21 -16 24 -13 5
-14 9 -5 20 9 10 8 15 -4 20 -9 3 -13 10 -10 16 3 5 1 10 -4 10 -6 0 -11 12
-11 28 0 19 -3 23 -9 13 -11 -17 -22 27 -23 89 0 28 -3 38 -9 29 -6 -10 -9
-11 -9 -1 0 6 -7 12 -15 12 -21 0 -19 20 3 21 16 1 16 2 0 6 -10 2 -18 10 -18
17 0 6 -9 19 -20 29 -12 10 -18 22 -15 27 4 6 -1 7 -11 3 -11 -4 -15 -3 -10 5
3 6 -3 13 -14 17 -11 3 -20 14 -20 23 0 8 -9 25 -20 37 -18 20 -19 23 -5 35
17 14 20 40 5 40 -5 0 -10 -6 -10 -12 0 -9 -3 -8 -9 1 -10 15 -17 -2 -25 -54
-2 -10 -8 -21 -14 -23 -15 -5 -16 24 -2 33 6 3 10 14 10 23 0 15 -2 15 -10 2
-9 -13 -10 -13 -10 0 0 13 -1 13 -10 0 -7 -11 -10 -6 -10 20 0 19 -4 30 -8 23
-10 -15 -36 -21 -38 -8 -7 46 -19 75 -31 75 -8 0 -12 -4 -9 -8 3 -5 -2 -9 -10
-9 -12 0 -14 12 -11 55 2 45 0 56 -14 59 -21 6 -31 40 -18 65 5 10 8 18 7 19
-27 7 -44 6 -51 -4 -5 -7 -7 -2 -3 13 8 37 -3 70 -25 70 -23 0 -25 25 -4 34
23 8 19 39 -4 31 -12 -3 -21 0 -25 10 -3 8 0 15 7 15 8 0 8 3 -2 9 -18 12 -5
47 19 54 12 3 20 14 20 26 0 12 5 21 11 21 6 0 9 6 6 14 -3 8 -1 17 6 20 7 2
4 5 -5 5 -22 1 -23 14 -3 31 12 10 13 16 5 24 -8 8 -13 7 -19 -3 -6 -9 -11
-10 -15 -2 -4 6 0 14 8 17 22 8 57 72 45 80 -7 4 -7 10 0 17 14 14 14 37 1 37
-5 0 -10 -7 -10 -15 0 -8 -4 -15 -9 -15 -5 0 -7 -9 -4 -20 3 -11 0 -20 -6 -20
-16 0 -13 34 7 80 14 34 21 40 40 35 12 -3 22 -1 22 5 0 6 -4 9 -9 6 -5 -3
-11 0 -14 8 -4 9 -17 12 -37 10 -27 -3 -30 -2 -20 10 6 8 18 12 26 9 8 -3 14
-2 13 3 -3 20 2 28 10 16 7 -11 9 -10 14 3 5 11 3 14 -5 9 -8 -5 -9 -2 -5 10
4 10 7 23 7 29 0 7 4 6 10 -3 8 -12 10 -10 11 10 1 25 1 25 8 -2 4 -21 10 -25
20 -18 13 7 13 11 0 26 -12 16 -12 17 3 12 11 -5 18 0 21 13 3 10 1 19 -5 19
-5 0 -6 5 -3 10 9 15 39 8 47 -10 6 -13 7 -12 7 1 1 23 28 31 45 14 19 -20 26
-19 26 3 0 12 8 17 30 17 17 0 34 -4 38 -10 11 -16 47 -41 38 -27 -5 8 0 12
13 12 12 0 20 -5 18 -12 -1 -6 6 -14 16 -16 11 -2 17 3 18 15 0 10 3 13 6 5 2
-6 9 -10 14 -6 5 3 9 1 9 -4 0 -13 49 -22 56 -11 3 5 0 9 -5 9 -20 0 -11 16
10 17 14 1 19 -3 15 -13 -7 -19 1 -18 26 6 12 10 24 18 27 15 4 -2 13 0 21 6
11 6 12 9 2 9 -7 0 -10 5 -7 10 3 6 1 10 -6 10 -10 0 -10 3 -1 12 9 9 15 8 25
-7 13 -17 43 -13 32 5 -3 5 11 14 30 20 27 9 35 17 35 36 0 13 5 24 11 24 5 0
7 5 4 10 -9 14 19 12 33 -2 9 -9 12 -9 12 0 0 7 -4 12 -8 12 -5 0 -9 7 -9 15
0 11 4 12 14 4 10 -9 13 -8 13 2 0 9 3 10 8 4 11 -16 32 -16 38 -1 3 8 12 12
20 9 8 -3 14 0 14 6 0 6 8 11 19 11 10 0 24 7 31 15 7 8 21 15 31 15 11 0 19
5 19 11 0 5 5 7 10 4 15 -9 12 4 -5 21 -10 10 -30 14 -55 13 -21 -2 -42 -1
-45 2 -3 3 1 6 8 7 6 0 30 5 51 11 22 5 44 7 50 4 5 -4 7 1 3 10 -4 11 -1 17
8 17 22 0 86 69 105 114 24 57 33 79 35 91 1 6 3 13 3 18 3 12 18 8 43 -14z
m151 -114 c9 -21 9 -29 -4 -42 -27 -26 -40 0 -29 60 3 16 22 6 33 -18z m188
-16 c0 8 3 12 6 8 3 -3 1 -14 -4 -24 -10 -16 -12 -15 -21 10 -15 39 -13 47 4
17 8 -14 14 -19 15 -11z m46 -18 c-4 -5 -2 -11 4 -13 5 -1 7 -13 4 -25 -5 -19
-9 -20 -28 -10 -11 7 -22 13 -24 14 -10 4 21 43 34 43 8 0 13 -4 10 -9z m-656
-171 c0 -5 -5 -10 -11 -10 -5 0 -7 5 -4 10 3 6 8 10 11 10 2 0 4 -4 4 -10z
m-190 -77 c0 -13 -14 -28 -28 -31 -10 -2 -10 2 0 18 13 20 28 27 28 13z m695
-3 c-3 -5 -10 -10 -16 -10 -5 0 -9 5 -9 10 0 6 7 10 16 10 8 0 12 -4 9 -10z
m-1245 -86 c0 -8 -4 -12 -10 -9 -5 3 -10 10 -10 16 0 5 5 9 10 9 6 0 10 -7 10
-16z m-113 -96 c-3 -7 -5 -2 -5 12 0 14 2 19 5 13 2 -7 2 -19 0 -25z m-87
-397 c0 -6 -4 -13 -10 -16 -5 -3 -10 1 -10 9 0 9 5 16 10 16 6 0 10 -4 10 -9z
m120 -421 c0 -5 -2 -10 -4 -10 -3 0 -8 5 -11 10 -3 6 -1 10 4 10 6 0 11 -4 11
-10z m1887 -72 c-3 -7 -5 -2 -5 12 0 14 2 19 5 13 2 -7 2 -19 0 -25z m-161
-43 c-5 -13 1 -15 34 -12 35 3 40 1 41 -17 1 -17 2 -18 6 -3 5 19 24 24 21 5
-2 -7 3 -13 10 -14 25 -3 27 -5 10 -14 -17 -10 -17 -21 -3 -54 10 -23 -20 -49
-47 -40 -10 3 -18 1 -18 -5 0 -6 -5 -11 -10 -11 -6 0 -20 -9 -32 -20 -12 -10
-24 -17 -28 -15 -8 5 -54 -42 -67 -70 -6 -11 -8 -39 -5 -63 4 -44 18 -56 76
-68 27 -5 31 -11 17 -28 -7 -8 -10 -20 -6 -26 3 -5 2 -10 -4 -10 -5 0 -12 8
-14 18 -3 12 -5 10 -6 -7 -1 -16 -5 -21 -16 -18 -8 4 -17 2 -20 -4 -4 -5 -12
-6 -18 -2 -6 4 -24 6 -39 5 -20 -2 -32 5 -44 23 -9 14 -20 23 -24 20 -5 -3
-11 16 -15 42 -3 27 -8 60 -10 74 -2 15 2 35 10 45 8 11 15 28 15 39 0 33 83
165 103 165 17 0 20 19 4 31 -5 3 11 16 35 27 53 26 51 25 44 7z m-1671 -26
c-6 -32 -12 -34 -12 -4 0 14 3 25 8 25 4 0 6 -10 4 -21z m1478 -658 c-3 -14
-11 -17 -26 -13 -19 5 -20 7 -4 10 13 3 17 10 14 23 -4 16 -3 18 8 9 7 -6 11
-19 8 -29z m-1048 -41 c3 -5 1 -10 -4 -10 -6 0 -11 5 -11 10 0 6 2 10 4 10 3
0 8 -4 11 -10z m1072 -20 c-1 -11 -4 -20 -8 -20 -4 0 -6 11 -5 24 0 13 4 22 8
20 4 -2 6 -13 5 -24z m233 -21 c-15 -40 -17 -55 -7 -69 9 -15 8 -27 -6 -55 -9
-20 -17 -45 -17 -55 0 -11 -5 -20 -11 -20 -6 0 -8 8 -4 20 5 15 0 21 -19 26
-15 3 -23 11 -19 17 3 6 1 7 -5 3 -7 -4 -12 -3 -12 2 0 15 28 34 39 28 22 -14
38 22 33 75 -3 35 -1 50 6 45 6 -3 13 3 17 14 3 11 10 20 15 20 4 0 0 -23 -10
-51z m-284 21 c8 0 14 -7 14 -15 0 -21 -22 -65 -32 -65 -5 0 -6 -4 -3 -10 3
-5 -1 -10 -9 -10 -20 0 -21 16 -2 27 7 4 17 19 21 33 7 22 6 23 -8 12 -13 -11
-19 -10 -37 8 -12 12 -18 25 -14 28 3 4 9 1 11 -5 3 -10 9 -9 21 3 11 11 17
13 20 5 2 -6 10 -11 18 -11z m104 -22 c0 -5 5 -6 10 -3 6 4 7 11 4 17 -4 6 -3
8 3 5 5 -3 8 -21 5 -38 -4 -31 -6 -31 -19 -13 -11 15 -16 16 -22 6 -10 -17 -2
-64 13 -75 8 -6 8 -10 -1 -13 -7 -3 -9 -13 -6 -22 4 -15 3 -15 -6 -2 -6 8 -11
25 -11 38 0 12 -4 22 -10 22 -5 0 -10 -5 -10 -12 0 -19 -16 3 -28 39 -11 34 2
59 18 34 5 -9 11 -8 24 4 9 9 14 21 11 26 -4 5 1 6 9 3 9 -3 16 -10 16 -16z
m140 -3 c0 -15 -27 -28 -41 -19 -8 5 -13 -9 -10 -28 0 -5 -3 -8 -8 -8 -5 0
-11 -10 -14 -22 -2 -13 -8 -31 -12 -40 -5 -13 -3 -18 9 -18 20 0 20 -14 0 -35
-25 -24 -40 -3 -38 54 1 41 6 55 27 75 15 14 27 30 27 36 0 12 41 30 53 23 4
-2 7 -10 7 -18z m-1203 -46 c-9 -14 -9 -21 1 -31 17 -17 15 -28 -5 -28 -9 0
-14 3 -11 6 4 3 2 19 -3 36 -6 21 -5 36 3 45 16 20 30 -5 15 -28z m1162 -30
c-19 -12 -24 -2 -8 17 9 11 14 13 17 4 3 -7 -2 -16 -9 -21z m-193 -25 c-3 -8
-9 -13 -13 -11 -5 3 -13 -1 -20 -8 -10 -10 -9 -16 2 -25 8 -7 15 -22 15 -33 0
-16 -3 -18 -12 -9 -16 16 -31 15 -23 0 4 -7 0 -5 -9 5 -16 20 -11 47 10 60 7
4 11 14 7 22 -4 11 -1 13 11 9 10 -4 18 1 23 12 4 11 8 13 11 6 2 -7 1 -20 -2
-28z m-915 -9 c5 4 5 -3 0 -16 -11 -31 -28 -35 -25 -7 4 40 5 43 11 30 2 -6 9
-10 14 -7z m939 -12 c0 -24 -17 -49 -26 -40 -4 4 -1 18 6 32 16 30 20 31 20 8z
m-656 -1 c2 -4 -2 -16 -10 -27 -13 -18 -14 -18 -12 8 2 26 12 35 22 19z m686
4 c0 -3 -4 -8 -10 -11 -5 -3 -10 -1 -10 4 0 6 5 11 10 11 6 0 10 -2 10 -4z
m270 -36 c0 -5 -4 -10 -10 -10 -5 0 -10 5 -10 10 0 6 5 10 10 10 6 0 10 -4 10
-10z m-242 -51 c-24 -16 -29 -9 -11 18 15 23 18 24 21 9 2 -10 -2 -22 -10 -27z
m-189 -7 c0 -23 -2 -24 -8 -7 -8 19 -8 19 -19 0 -6 -11 -12 -14 -12 -7 0 18
23 51 32 46 4 -3 8 -17 7 -32z m31 -2 c-6 -11 -12 -20 -14 -20 -2 0 -2 9 1 20
3 11 9 20 15 20 5 0 4 -9 -2 -20z m80 -40 c0 -5 -4 -10 -9 -10 -6 0 -13 5 -16
10 -3 6 1 10 9 10 9 0 16 -4 16 -10z m205 -20 c3 -6 -1 -7 -9 -4 -18 7 -21 14
-7 14 6 0 13 -4 16 -10z m-385 -70 c0 -5 -5 -10 -11 -10 -5 0 -7 5 -4 10 3 6
8 10 11 10 2 0 4 -4 4 -10z m-380 -14 c0 -2 -7 -6 -15 -10 -8 -3 -15 -1 -15 4
0 6 7 10 15 10 8 0 15 -2 15 -4z m963 -46 c8 -31 -20 -12 -32 22 -11 30 -10
31 8 14 10 -10 21 -26 24 -36z m-658 21 c3 -5 1 -12 -5 -16 -5 -3 -10 1 -10 9
0 18 6 21 15 7z m-30 -51 c3 -5 1 -10 -4 -10 -6 0 -11 5 -11 10 0 6 2 10 4 10
3 0 8 -4 11 -10z m-271 -16 c3 -8 2 -12 -4 -9 -6 3 -10 10 -10 16 0 14 7 11
14 -7z m1681 -84 c-3 -5 -10 -10 -16 -10 -5 0 -9 5 -9 10 0 6 7 10 16 10 8 0
12 -4 9 -10z m-309 -66 c-18 -17 -26 -18 -26 -1 0 7 9 13 20 14 18 2 18 0 6
-13z m324 -94 c0 -5 -4 -10 -10 -10 -5 0 -10 5 -10 10 0 6 5 10 10 10 6 0 10
-4 10 -10z m34 -5 c-4 -8 -10 -12 -15 -9 -11 6 -2 24 11 24 5 0 7 -7 4 -15z
m-417 -58 c0 -8 -6 -14 -14 -14 -14 0 -17 10 -6 20 10 11 20 8 20 -6z m-424
-83 c-9 -27 -37 -49 -29 -22 2 7 7 26 11 42 4 20 9 26 17 18 7 -7 7 -20 1 -38z
m24 -66 c-3 -8 -6 -5 -6 6 -1 11 2 17 5 13 3 -3 4 -12 1 -19z m2353 -344 c0
-203 -46 -476 -92 -554 -43 -71 -134 -178 -165 -195 -18 -10 -33 -21 -33 -26
0 -4 -17 -18 -37 -31 -20 -12 -44 -28 -52 -33 -9 -6 -50 -36 -93 -67 -42 -32
-96 -65 -120 -74 -23 -10 -55 -26 -70 -36 -16 -11 -32 -17 -38 -13 -8 5 -55
-18 -70 -35 -4 -5 -65 -36 -152 -78 -5 -2 -8 1 -8 6 0 6 9 14 20 17 11 3 20
11 20 17 0 8 -62 -31 -80 -51 -15 -17 -103 -72 -91 -58 19 24 -2 21 -24 -3
-19 -21 -45 -27 -45 -10 0 6 -5 10 -11 10 -6 0 -9 -6 -6 -13 3 -9 -8 -20 -31
-30 -89 -37 -166 -66 -170 -62 -9 9 10 24 37 30 16 3 39 17 51 31 13 13 28 24
34 24 6 0 30 19 53 42 35 34 43 39 43 23 0 -14 5 -9 18 15 10 21 24 34 34 34
10 -1 16 1 15 5 -3 11 48 58 73 66 28 9 120 104 120 124 0 5 9 13 20 16 11 3
20 13 20 20 0 9 6 12 17 8 11 -4 14 -3 9 5 -4 7 -1 12 7 12 8 0 25 9 38 20 54
45 79 70 79 79 0 5 10 11 22 14 12 4 19 9 16 12 -3 3 6 18 21 33 14 15 33 39
41 52 8 14 29 39 47 58 17 18 33 40 35 50 2 9 16 23 31 30 15 7 27 19 27 27 0
17 68 98 89 106 9 3 16 12 16 20 0 8 5 14 12 14 17 0 28 14 28 38 0 15 6 22
20 22 13 0 21 8 23 21 2 12 14 27 28 34 13 7 24 19 24 27 0 7 9 18 20 25 11 7
20 20 20 28 1 17 55 80 70 80 5 0 10 5 10 11 0 6 7 17 15 25 8 9 15 13 15 9 0
-3 6 0 14 7 8 7 14 15 14 18 -1 24 4 40 12 40 6 0 10 -16 10 -36z m-2710 -159
c0 -8 -4 -15 -10 -15 -5 0 -7 7 -4 15 4 8 8 15 10 15 2 0 4 -7 4 -15z m114
-540 c3 -8 1 -15 -4 -15 -6 0 -10 7 -10 15 0 8 2 15 4 15 2 0 6 -7 10 -15z
m-101 -40 c-3 -9 -8 -14 -10 -11 -3 3 -2 9 2 15 9 16 15 13 8 -4z m141 -19
c-8 -21 -34 -28 -34 -10 0 8 5 12 10 9 6 -3 10 -1 10 4 0 6 4 11 10 11 5 0 7
-6 4 -14z m33 -298 c-3 -8 -6 -5 -6 6 -1 11 2 17 5 13 3 -3 4 -12 1 -19z m38
-27 c3 -5 1 -12 -4 -15 -5 -3 -11 1 -15 9 -6 16 9 21 19 6z m378 -144 c4 3 7
1 7 -5 0 -13 -10 -15 -34 -6 -9 3 -13 10 -10 16 4 5 11 5 18 -1 7 -6 16 -8 19
-4z m64 -19 c-3 -8 -6 -5 -6 6 -1 11 2 17 5 13 3 -3 4 -12 1 -19z m883 -38
c-14 -11 -34 -19 -45 -19 -13 0 -7 7 20 19 52 24 55 24 25 0z m-215 -50 c-3
-5 -10 -10 -16 -10 -5 0 -9 5 -9 10 0 6 7 10 16 10 8 0 12 -4 9 -10z m-45 -20
c-8 -5 -22 -9 -30 -9 -10 0 -8 3 5 9 27 12 43 12 25 0z"/>
<path d="M8785 10220 c-3 -5 -1 -10 4 -10 6 0 11 5 11 10 0 6 -2 10 -4 10 -3
0 -8 -4 -11 -10z"/>
<path d="M8610 10210 c0 -3 -12 -7 -27 -8 -37 -3 -39 -9 -4 -14 17 -2 44 3 63
13 l33 18 -32 -2 c-18 -1 -33 -4 -33 -7z"/>
<path d="M9145 10210 c3 -5 8 -10 11 -10 2 0 4 5 4 10 0 6 -5 10 -11 10 -5 0
-7 -4 -4 -10z"/>
<path d="M9097 10199 c7 -7 15 -10 18 -7 3 3 -2 9 -12 12 -14 6 -15 5 -6 -5z"/>
<path d="M8480 10166 c7 -7 14 -6 21 1 9 9 7 12 -9 10 -14 -1 -18 -5 -12 -11z"/>
<path d="M9228 10173 c7 -3 16 -2 19 1 4 3 -2 6 -13 5 -11 0 -14 -3 -6 -6z"/>
<path d="M8958 10163 c6 -2 18 -2 25 0 6 3 1 5 -13 5 -14 0 -19 -2 -12 -5z"/>
<path d="M8110 10130 c0 -5 5 -10 10 -10 6 0 10 5 10 10 0 6 -4 10 -10 10 -5
0 -10 -4 -10 -10z"/>
<path d="M8052 10088 c-15 -15 -16 -38 -2 -38 6 0 9 3 9 8 -3 19 2 33 10 27 5
-3 12 -1 16 5 9 14 -18 13 -33 -2z"/>
<path d="M8188 10088 c5 -5 16 -8 23 -6 8 3 3 7 -10 11 -17 4 -21 3 -13 -5z"/>
<path d="M9426 10077 c3 -10 9 -15 12 -12 3 3 0 11 -7 18 -10 9 -11 8 -5 -6z"/>
<path d="M7987 10063 c-4 -3 -7 -11 -7 -17 0 -6 5 -5 12 2 6 6 9 14 7 17 -3 3
-9 2 -12 -2z"/>
<path d="M7840 10050 c0 -5 5 -10 11 -10 5 0 7 5 4 10 -3 6 -8 10 -11 10 -2 0
-4 -4 -4 -10z"/>
<path d="M8110 10050 c0 -6 7 -10 15 -10 8 0 15 2 15 4 0 2 -7 6 -15 10 -8 3
-15 1 -15 -4z"/>
<path d="M7877 10036 c-17 -13 -17 -14 1 -18 12 -3 23 2 31 13 14 23 -4 26
-32 5z"/>
<path d="M7943 10034 c-15 -16 -16 -24 -4 -24 8 0 24 30 19 35 -2 2 -9 -3 -15
-11z"/>
<path d="M7976 9994 c-5 -14 -4 -15 9 -4 17 14 19 20 6 20 -5 0 -12 -7 -15
-16z"/>
<path d="M9500 10000 c-8 -5 -12 -12 -9 -15 4 -3 12 1 19 10 14 17 11 19 -10
5z"/>
<path d="M7905 9991 c-3 -5 -1 -12 5 -16 5 -3 10 1 10 9 0 18 -6 21 -15 7z"/>
<path d="M7826 9961 c-3 -5 5 -8 18 -7 13 0 22 4 19 9 -6 10 -31 9 -37 -2z"/>
<path d="M7773 9915 c0 -8 4 -15 9 -15 4 0 8 4 8 9 0 6 -4 12 -8 15 -5 3 -9
-1 -9 -9z"/>
<path d="M7718 9881 c-3 -18 0 -28 9 -28 6 0 9 5 6 10 -3 5 -1 12 5 16 6 4 5
10 -3 18 -10 9 -14 6 -17 -16z"/>
<path d="M7810 9885 c0 -8 4 -15 8 -15 5 0 9 7 9 15 0 8 -4 15 -9 15 -4 0 -8
-7 -8 -15z"/>
<path d="M7970 9875 c0 -8 2 -15 4 -15 2 0 6 7 10 15 3 8 1 15 -4 15 -6 0 -10
-7 -10 -15z"/>
<path d="M9596 9873 c-6 -14 -5 -15 5 -6 7 7 10 15 7 18 -3 3 -9 -2 -12 -12z"/>
<path d="M7755 9830 c-3 -6 1 -7 9 -4 18 7 21 14 7 14 -6 0 -13 -4 -16 -10z"/>
<path d="M7715 9820 c-3 -6 1 -7 9 -4 18 7 21 14 7 14 -6 0 -13 -4 -16 -10z"/>
<path d="M9575 9815 c-16 -7 -23 -14 -14 -14 8 -1 24 6 35 14 24 18 18 18 -21
0z"/>
<path d="M9518 9803 c7 -3 16 -2 19 1 4 3 -2 6 -13 5 -11 0 -14 -3 -6 -6z"/>
<path d="M9745 9790 c-4 -7 -16 -10 -26 -7 -11 3 -19 1 -19 -4 0 -12 -27 -12
-32 0 -1 5 -9 2 -17 -7 -13 -14 -10 -15 34 -9 48 7 48 7 30 -13 -10 -11 -16
-22 -14 -25 3 -2 17 12 33 31 15 20 26 38 23 40 -3 3 -8 0 -12 -6z"/>
<path d="M9498 9763 c7 -3 16 -2 19 1 4 3 -2 6 -13 5 -11 0 -14 -3 -6 -6z"/>
<path d="M9548 9763 c12 -2 32 -2 45 0 12 2 2 4 -23 4 -25 0 -35 -2 -22 -4z"/>
<path d="M7788 9743 c6 -2 18 -2 25 0 6 3 1 5 -13 5 -14 0 -19 -2 -12 -5z"/>
<path d="M9756 9735 c-9 -26 -7 -32 5 -12 6 10 9 21 6 23 -2 3 -7 -2 -11 -11z"/>
<path d="M7659 9713 c-1 -5 -1 -12 0 -17 1 -5 -4 -13 -11 -17 -10 -7 -9 -9 3
-9 16 0 29 19 29 41 0 11 -19 12 -21 2z"/>
<path d="M7707 9673 c-4 -3 -7 -13 -7 -22 1 -13 3 -13 11 2 11 19 8 33 -4 20z"/>
<path d="M9928 9664 c-10 -9 3 -42 19 -49 24 -9 29 3 8 19 -10 7 -15 18 -11
24 7 12 -6 17 -16 6z"/>
<path d="M9810 9650 c0 -5 5 -10 11 -10 5 0 7 5 4 10 -3 6 -8 10 -11 10 -2 0
-4 -4 -4 -10z"/>
<path d="M9860 9614 c0 -8 5 -12 10 -9 6 4 8 11 5 16 -9 14 -15 11 -15 -7z"/>
<path d="M9906 9599 c3 -5 14 -14 26 -20 17 -9 19 -9 10 7 -5 10 -17 19 -26
20 -9 1 -14 -2 -10 -7z"/>
<path d="M9985 9480 c27 -12 43 -12 25 0 -8 5 -22 9 -30 9 -10 0 -8 -3 5 -9z"/>
<path d="M10035 9470 c-4 -6 3 -10 14 -10 25 0 27 6 6 13 -8 4 -17 2 -20 -3z"/>
<path d="M7660 9444 c0 -14 3 -15 18 -3 9 7 19 15 21 16 2 2 -5 3 -17 3 -14 0
-22 -6 -22 -16z"/>
<path d="M7740 9450 l-25 -6 29 -8 c30 -7 46 -1 30 13 -5 4 -20 5 -34 1z"/>
<path d="M10003 9452 c-9 -6 -6 -11 7 -20 21 -13 26 -6 12 15 -4 7 -13 9 -19
5z"/>
<path d="M7615 9400 c3 -5 8 -10 11 -10 2 0 4 5 4 10 0 6 -5 10 -11 10 -5 0
-7 -4 -4 -10z"/>
<path d="M7660 9369 c0 -5 5 -7 10 -4 6 3 10 8 10 11 0 2 -4 4 -10 4 -5 0 -10
-5 -10 -11z"/>
<path d="M10030 9240 c0 -5 7 -7 15 -4 8 4 15 8 15 10 0 2 -7 4 -15 4 -8 0
-15 -4 -15 -10z"/>
<path d="M7627 9206 c-3 -8 0 -16 6 -19 7 -3 13 3 13 14 0 22 -12 25 -19 5z"/>
<path d="M10036 9207 c3 -10 9 -15 12 -12 3 3 0 11 -7 18 -10 9 -11 8 -5 -6z"/>
<path d="M10050 9145 c0 -7 30 -13 34 -7 3 4 -4 9 -15 9 -10 1 -19 0 -19 -2z"/>
<path d="M9778 9023 c7 -3 16 -2 19 1 4 3 -2 6 -13 5 -11 0 -14 -3 -6 -6z"/>
<path d="M9807 8999 c7 -7 15 -10 18 -7 3 3 -2 9 -12 12 -14 6 -15 5 -6 -5z"/>
<path d="M9800 8843 c-14 -7 -18 -13 -10 -13 17 0 47 17 40 23 -3 2 -16 -2
-30 -10z"/>
<path d="M7800 8810 c0 -5 5 -10 11 -10 5 0 7 5 4 10 -3 6 -8 10 -11 10 -2 0
-4 -4 -4 -10z"/>
<path d="M9917 8788 c-14 -9 -7 -10 44 -12 21 -1 35 3 33 9 -5 12 -60 14 -77
3z"/>
<path d="M7800 8770 c0 -5 7 -10 15 -10 8 0 15 5 15 10 0 6 -7 10 -15 10 -8 0
-15 -4 -15 -10z"/>
<path d="M7665 8760 c-3 -6 1 -7 9 -4 18 7 21 14 7 14 -6 0 -13 -4 -16 -10z"/>
<path d="M10404 8634 c-18 -14 -18 -15 4 -4 12 6 22 13 22 15 0 8 -5 6 -26
-11z"/>
<path d="M10573 8621 c-18 -8 -33 -18 -33 -23 0 -12 28 -10 35 2 4 6 10 8 15
5 4 -3 11 2 14 11 8 22 7 22 -31 5z"/>
<path d="M7652 8590 c-7 -12 -8 -20 -2 -20 5 0 10 5 10 11 0 5 4 7 10 4 6 -3
7 1 4 9 -8 20 -7 20 -22 -4z"/>
<path d="M10477 8603 c-3 -5 5 -15 18 -21 15 -7 25 -8 25 -2 0 6 -6 10 -14 10
-8 0 -16 5 -18 12 -3 8 -6 9 -11 1z"/>
<path d="M9905 8590 c-19 -8 -19 -9 3 -9 12 -1 22 4 22 9 0 6 -1 10 -2 9 -2 0
-12 -4 -23 -9z"/>
<path d="M10136 8584 c-23 -22 -20 -27 7 -9 13 8 26 13 29 9 3 -3 9 -1 13 5
10 17 -32 13 -49 -5z"/>
<path d="M10505 8550 c3 -5 10 -10 16 -10 5 0 9 5 9 10 0 6 -7 10 -16 10 -8 0
-12 -4 -9 -10z"/>
<path d="M10580 8541 c0 -5 5 -13 10 -16 6 -3 10 -2 10 4 0 5 -4 13 -10 16 -5
3 -10 2 -10 -4z"/>
<path d="M10730 8516 c0 -2 7 -7 16 -10 8 -3 12 -2 9 4 -6 10 -25 14 -25 6z"/>
<path d="M10590 8434 c0 -19 18 -35 49 -44 28 -8 31 -7 20 6 -6 8 -14 12 -17
9 -3 -3 -16 5 -29 17 -13 12 -23 17 -23 12z"/>
<path d="M10466 8365 c17 -8 44 -17 60 -20 l29 -6 -29 17 c-16 9 -43 18 -60
20 l-31 3 31 -14z"/>
<path d="M7708 8363 c7 -3 16 -2 19 1 4 3 -2 6 -13 5 -11 0 -14 -3 -6 -6z"/>
<path d="M10318 8323 c7 -3 16 -2 19 1 4 3 -2 6 -13 5 -11 0 -14 -3 -6 -6z"/>
<path d="M10576 8318 c5 -8 2 -9 -9 -5 -10 3 -17 2 -17 -4 0 -14 32 -7 38 9 2
6 -1 12 -8 12 -6 0 -8 -5 -4 -12z"/>
<path d="M10344 8302 c4 -3 14 -7 22 -8 9 -1 13 0 10 4 -4 3 -14 7 -22 8 -9 1
-13 0 -10 -4z"/>
<path d="M10228 8293 c7 -3 16 -2 19 1 4 3 -2 6 -13 5 -11 0 -14 -3 -6 -6z"/>
<path d="M10399 8291 c8 -5 44 -15 80 -21 36 -6 77 -15 91 -20 14 -5 41 -11
60 -14 34 -5 34 -5 10 8 -20 11 -93 28 -115 27 -2 0 -19 5 -37 10 -50 16 -106
22 -89 10z"/>
<path d="M10635 8280 c3 -5 11 -10 16 -10 6 0 7 5 4 10 -3 6 -11 10 -16 10 -6
0 -7 -4 -4 -10z"/>
<path d="M9835 8244 c-22 -9 -51 -18 -65 -21 -28 -6 -69 -50 -69 -73 0 -11 3
-11 14 4 25 33 84 52 145 46 41 -5 50 -8 35 -14 -36 -14 -42 -15 -55 -3 -10 9
-11 9 -6 0 3 -6 2 -14 -4 -18 -5 -3 -10 -2 -10 3 0 12 -43 10 -52 -3 -17 -23
-8 -37 19 -30 24 6 25 5 12 -11 -13 -16 -12 -16 8 -6 13 7 24 8 28 3 3 -5 -3
-12 -14 -16 -17 -5 -27 -22 -37 -66 -4 -20 24 -18 56 4 34 24 36 14 4 -18 -21
-21 -24 -29 -14 -35 11 -7 11 -12 0 -27 -8 -10 6 1 31 25 26 24 54 42 67 42
13 0 20 -4 17 -10 -4 -6 -14 -9 -23 -8 -9 2 -17 -2 -17 -7 0 -6 -12 -24 -27
-40 -30 -32 -29 -48 0 -22 10 9 34 20 53 23 19 4 42 14 52 22 16 15 17 14 11
-2 -6 -16 -4 -17 14 -7 12 7 22 8 22 4 0 -4 5 -2 12 5 7 7 17 12 22 12 21 0
-27 -35 -83 -60 -13 -6 -21 -13 -18 -16 3 -3 23 3 45 14 34 16 39 17 34 4 -4
-12 -1 -14 14 -8 10 5 27 11 36 13 10 3 16 8 14 12 -3 4 11 8 30 9 23 2 33 -1
29 -8 -3 -5 2 -10 14 -10 10 0 27 -3 37 -7 13 -5 15 -3 9 7 -6 10 -1 12 20 7
16 -2 42 1 59 8 79 34 277 53 234 23 -8 -6 4 -8 36 -4 27 3 70 6 95 6 43 1 44
12 1 22 -8 2 -21 11 -30 21 -8 10 -28 20 -44 23 -15 2 -35 11 -43 19 -13 14
-35 20 -56 16 -5 -1 -6 3 -3 8 5 7 -16 19 -46 25 -18 3 -19 16 0 16 11 0 23
-4 27 -10 3 -5 33 -12 65 -16 54 -6 58 -8 43 -21 -14 -10 -15 -13 -3 -11 26 3
83 -14 71 -21 -7 -5 5 -13 30 -20 30 -9 38 -15 29 -21 -9 -6 -2 -11 24 -15 57
-11 55 2 -6 30 -31 14 -62 33 -69 41 -17 21 -108 66 -122 61 -7 -2 -29 2 -49
9 -21 7 -38 11 -38 7 0 -3 -6 -1 -12 4 -15 12 -86 27 -110 24 -12 -1 -18 4
-18 17 0 15 -10 21 -42 28 l-43 8 60 5 c33 4 56 9 50 12 -5 4 -21 5 -35 4 -14
-2 -44 -4 -68 -6 -24 -2 -46 -8 -49 -13 -3 -6 -3 -8 1 -5 9 9 79 -16 84 -30 2
-7 -9 -11 -30 -10 l-33 1 30 8 c35 9 43 8 -110 17 -99 6 -102 6 -224 0 -75 -4
-82 -3 -65 10 12 10 35 13 65 10 29 -2 53 1 65 10 16 11 11 13 -37 13 -30 -1
-72 -8 -94 -16z m40 -154 c-3 -5 -13 -10 -21 -10 -8 0 -12 5 -9 10 3 6 13 10
21 10 8 0 12 -4 9 -10z m585 -30 c18 -12 2 -12 -25 0 -13 6 -15 9 -5 9 8 0 22
-4 30 -9z m90 1 c0 -5 -9 -7 -20 -4 -11 3 -20 7 -20 9 0 2 9 4 20 4 11 0 20
-4 20 -9z m73 -24 c3 2 8 0 12 -6 7 -12 -33 -15 -59 -5 -28 11 -17 23 13 14
16 -4 32 -6 34 -3z m-769 -32 c-4 -8 -8 -15 -10 -15 -2 0 -4 7 -4 15 0 8 4 15
10 15 5 0 7 -7 4 -15z m485 1 c-2 -1 -19 -8 -36 -14 -37 -12 -45 -6 -10 8 22
9 54 13 46 6z m-122 -32 c-3 -3 -12 -4 -19 -1 -8 3 -5 6 6 6 11 1 17 -2 13 -5z"/>
<path d="M10008 8253 c7 -3 16 -2 19 1 4 3 -2 6 -13 5 -11 0 -14 -3 -6 -6z"/>
<path d="M10082 8255 c3 -3 25 -8 49 -11 32 -3 40 -2 29 6 -15 10 -88 14 -78
5z"/>
<path d="M10354 8239 c-4 -8 3 -9 24 -4 17 3 39 2 49 -4 16 -9 15 -10 -6 -11
-13 0 -22 -3 -18 -6 3 -4 19 -3 34 1 l28 7 -25 13 c-30 17 -76 19 -86 4z"/>
<path d="M10679 8241 c7 -5 9 -11 5 -13 -5 -3 -3 -3 4 -2 6 2 12 -1 12 -6 0
-6 7 -10 15 -10 8 0 15 -4 15 -10 0 -5 6 -10 13 -10 14 1 -53 59 -68 60 -5 0
-4 -4 4 -9z"/>
<path d="M10490 8230 c0 -5 10 -10 23 -10 12 0 31 -8 42 -16 19 -15 19 -15
-10 -9 -16 4 -36 8 -42 11 -7 2 -13 -1 -13 -6 0 -10 30 -17 115 -25 57 -6 59
-5 37 10 -12 9 -28 13 -35 9 -6 -4 -9 -4 -5 1 4 4 -5 15 -20 22 -34 19 -92 26
-92 13z"/>
<path d="M9692 8207 c-31 -58 -63 -184 -42 -160 8 10 60 176 56 180 -1 2 -8
-7 -14 -20z"/>
<path d="M9631 8204 c0 -11 3 -14 6 -6 3 7 2 16 -1 19 -3 4 -6 -2 -5 -13z"/>
<path d="M10323 8204 c4 -4 15 -9 25 -10 9 -1 33 -5 52 -9 24 -4 30 -3 20 3
-19 12 -108 27 -97 16z"/>
<path d="M10785 8170 c4 -6 32 -24 63 -41 113 -61 171 -94 179 -103 5 -6 2 -6
-7 -1 -8 5 -26 8 -40 7 -16 -1 -45 13 -80 38 l-55 41 45 -41 c25 -22 44 -45
42 -51 -1 -6 1 -8 6 -5 5 3 22 -7 38 -22 32 -31 104 -75 111 -68 2 2 -7 12
-22 23 -14 10 -42 31 -63 46 l-37 29 30 -7 c17 -4 40 -14 52 -21 12 -8 29 -14
37 -14 7 0 16 -7 20 -15 3 -8 12 -12 20 -9 12 5 13 11 5 25 -5 10 -15 19 -22
19 -7 0 -25 12 -41 27 -16 15 -38 28 -49 28 -10 1 -22 6 -25 11 -4 5 -13 10
-19 11 -7 2 -35 19 -63 39 -27 20 -50 33 -50 30 0 -3 -15 3 -32 14 -36 22 -53
26 -43 10z"/>
<path d="M9470 8161 c0 -6 5 -13 10 -16 6 -3 10 1 10 9 0 9 -4 16 -10 16 -5 0
-10 -4 -10 -9z"/>
<path d="M10683 8146 c-4 -7 -15 -15 -23 -18 -8 -3 4 -5 28 -5 27 0 53 -8 70
-20 34 -25 78 -40 67 -24 -8 14 -77 59 -110 71 -18 7 -27 6 -32 -4z"/>
<path d="M9520 8116 c0 -2 7 -9 15 -16 9 -7 15 -8 15 -2 0 5 -7 12 -15 16 -8
3 -15 4 -15 2z"/>
<path d="M9733 8088 c-30 -34 -37 -49 -19 -42 8 3 18 14 21 23 3 10 15 23 28
29 15 7 17 11 6 11 -8 1 -25 -9 -36 -21z"/>
<path d="M8340 8084 c0 -8 5 -12 10 -9 6 4 8 11 5 16 -9 14 -15 11 -15 -7z"/>
<path d="M9616 8085 c-9 -26 -7 -32 5 -12 6 10 9 21 6 23 -2 3 -7 -2 -11 -11z"/>
<path d="M9765 8069 c-4 -6 -5 -12 -2 -15 2 -3 7 2 10 11 7 17 1 20 -8 4z"/>
<path d="M9755 8030 c3 -5 8 -10 11 -10 2 0 4 5 4 10 0 6 -5 10 -11 10 -5 0
-7 -4 -4 -10z"/>
<path d="M10894 8023 c2 -9 13 -24 26 -32 l24 -16 -24 33 c-27 37 -29 38 -26
15z"/>
<path d="M10785 8020 c3 -5 11 -10 16 -10 6 0 7 5 4 10 -3 6 -11 10 -16 10 -6
0 -7 -4 -4 -10z"/>
<path d="M9735 7999 c-4 -6 -5 -12 -2 -15 2 -3 7 2 10 11 7 17 1 20 -8 4z"/>
<path d="M9774 7985 c-15 -14 -23 -25 -17 -25 5 0 20 11 33 25 13 14 21 25 17
25 -3 0 -18 -11 -33 -25z"/>
<path d="M10810 7980 c14 -11 34 -20 45 -20 14 0 8 6 -18 20 -47 25 -59 25
-27 0z"/>
<path d="M10402 7968 c-46 -11 -81 -22 -79 -25 5 -4 209 16 215 22 2 1 -10 7
-25 12 -21 7 -50 5 -111 -9z"/>
<path d="M10550 7955 c-6 -7 15 -11 68 -12 42 0 88 -3 102 -6 80 -19 77 -18
47 -4 -15 7 -25 15 -23 18 4 4 -38 8 -137 13 -26 1 -52 -3 -57 -9z"/>
<path d="M8435 7949 c-4 -5 -11 -6 -17 -3 -8 5 -9 1 -5 -10 4 -10 7 -19 7 -22
0 -2 11 2 25 8 14 6 25 15 25 19 0 12 -29 19 -35 8z"/>
<path d="M10125 7950 c-3 -6 1 -7 9 -4 18 7 21 14 7 14 -6 0 -13 -4 -16 -10z"/>
<path d="M10890 7953 c8 -3 32 -11 53 -18 39 -13 39 -13 18 6 -12 11 -34 19
-53 18 -18 0 -26 -3 -18 -6z"/>
<path d="M11124 7916 c0 -14 4 -22 8 -20 4 3 8 14 8 25 0 10 -4 19 -8 19 -4 0
-8 -11 -8 -24z"/>
<path d="M10890 7886 c0 -2 9 -6 20 -9 11 -3 18 -1 14 4 -5 9 -34 13 -34 5z"/>
<path d="M8477 7854 c-8 -8 1 -24 14 -24 5 0 9 7 9 15 0 15 -12 20 -23 9z"/>
<path d="M11251 7837 c2 -2 18 -11 34 -21 l30 -17 -24 20 c-13 12 -28 21 -34
21 -6 0 -8 -1 -6 -3z"/>
<path d="M8604 7765 c3 -8 1 -15 -4 -15 -6 0 -10 -4 -10 -9 0 -5 8 -8 17 -7
20 3 26 46 5 46 -8 0 -12 -6 -8 -15z"/>
<path d="M8650 7730 c0 -5 5 -10 11 -10 5 0 7 5 4 10 -3 6 -8 10 -11 10 -2 0
-4 -4 -4 -10z"/>
<path d="M10031 7646 c-1 -13 -6 -17 -21 -13 -11 3 -20 1 -20 -3 0 -4 -20 -20
-44 -34 -43 -25 -166 -151 -166 -170 0 -6 5 -5 12 2 7 7 16 12 20 12 18 0 6
-28 -31 -73 -49 -59 -79 -133 -62 -150 7 -7 49 -14 99 -16 50 -2 90 -8 94 -15
6 -8 8 -8 8 1 0 7 11 12 25 11 21 -2 23 -6 18 -28 -6 -24 -5 -24 14 -7 26 22
36 22 28 -2 -3 -11 0 -23 6 -27 9 -5 10 -2 6 9 -4 11 -1 17 8 17 8 0 15 -9 15
-21 0 -17 4 -19 23 -13 12 4 24 10 27 14 3 4 17 10 33 14 33 8 37 -11 5 -23
-12 -4 -17 -11 -11 -14 15 -9 90 22 90 38 0 7 -5 11 -11 9 -6 -2 -16 7 -22 20
l-11 25 87 0 c48 0 106 4 128 10 48 13 104 71 122 127 20 60 42 84 66 71 29
-15 30 -17 14 -27 -12 -8 -11 -10 6 -10 34 0 64 -40 62 -84 -1 -30 -6 -40 -22
-44 -20 -6 -19 -6 4 -12 14 -4 30 -3 35 1 14 10 40 -6 31 -19 -3 -5 -22 -13
-41 -16 -19 -4 -35 -12 -35 -17 0 -7 12 -8 33 -3 17 5 44 8 60 8 15 -1 27 3
27 7 0 5 5 9 11 9 5 0 7 -4 4 -10 -11 -17 5 -32 20 -20 8 7 19 9 25 5 5 -3 10
0 10 8 0 18 48 29 93 21 l32 -6 -25 20 c-29 24 -20 41 13 24 32 -16 107 -25
107 -13 0 11 -52 53 -60 49 -3 -2 -27 13 -55 32 -67 47 -66 47 -100 73 -16 14
-40 27 -52 31 -13 4 -23 12 -23 17 0 5 -17 17 -37 26 -21 10 -48 26 -59 36
-12 10 -30 20 -40 22 -11 2 -19 4 -19 5 0 1 -8 3 -18 5 -56 11 -124 28 -139
36 -10 5 -18 5 -18 1 0 -9 -62 -8 -116 2 -70 14 -21 51 64 48 154 -6 342 -75
440 -162 31 -27 61 -50 67 -50 7 0 22 -9 35 -20 30 -26 65 -28 51 -2 -15 27
-71 76 -144 125 -110 75 -287 121 -535 139 -115 8 -173 8 -197 1 -25 -8 -35
-8 -39 1 -2 6 -5 3 -5 -8z m299 -158 c0 6 5 12 10 12 6 0 10 -9 10 -20 0 -22
16 -27 23 -7 4 9 7 9 18 -1 12 -11 12 -14 -1 -22 -8 -5 -18 -6 -22 -4 -4 3
-14 2 -20 -2 -25 -16 -45 -11 -43 10 1 12 3 28 4 36 1 13 2 13 11 0 6 -10 10
-11 10 -2z m-45 -18 c-2 -31 -15 -37 -15 -7 0 15 4 27 8 27 5 0 8 -9 7 -20z
m-304 -114 c5 -6 9 0 9 15 1 23 1 23 15 5 8 -11 15 -28 15 -39 0 -10 4 -16 9
-13 5 3 11 -1 15 -9 3 -8 1 -15 -4 -15 -6 0 -10 -7 -10 -15 0 -16 -12 -20 -24
-7 -4 4 -24 12 -44 18 -21 6 -36 16 -34 23 1 7 -2 10 -7 7 -13 -8 -21 18 -10
35 7 11 11 10 23 -6 15 -20 15 -19 16 6 0 31 14 48 18 22 2 -10 8 -22 13 -27z
m-74 -58 c13 -15 13 -16 -9 -11 -28 7 -58 32 -58 48 0 6 5 16 12 23 10 10 15
6 26 -15 8 -16 21 -36 29 -45z m-86 7 c22 -14 33 -51 17 -61 -6 -4 -14 -2 -16
4 -2 7 -8 10 -12 7 -15 -10 -58 6 -65 23 -12 31 39 49 76 27z m245 -104 c-4
-5 -1 -11 5 -13 7 -2 5 -9 -5 -17 -14 -12 -16 -11 -12 10 6 31 5 29 12 29 3 0
3 -4 0 -9z"/>
<path d="M9937 7173 c-4 -3 -7 -11 -7 -17 0 -6 5 -5 12 2 6 6 9 14 7 17 -3 3
-9 2 -12 -2z"/>
<path d="M10499 7175 c-5 -20 -3 -31 5 -37 19 -13 27 4 9 17 -16 12 -12 13 27
9 25 -3 54 -7 64 -9 13 -3 16 -1 8 7 -11 11 -111 23 -113 13z"/>
<path d="M10227 7155 c-8 -20 -4 -29 11 -24 5 2 6 13 2 23 -6 19 -7 19 -13 1z"/>
<path d="M10350 7148 c0 -20 26 -53 33 -42 3 5 -3 20 -14 33 -12 15 -19 18
-19 9z"/>
<path d="M10460 7140 c0 -5 5 -10 10 -10 6 0 10 5 10 10 0 6 -4 10 -10 10 -5
0 -10 -4 -10 -10z"/>
<path d="M10300 7130 c8 -5 22 -10 30 -10 13 0 13 1 0 10 -8 5 -22 10 -30 10
-13 0 -13 -1 0 -10z"/>
<path d="M9930 7080 c0 -5 5 -10 11 -10 5 0 7 5 4 10 -3 6 -8 10 -11 10 -2 0
-4 -4 -4 -10z"/>
<path d="M9960 7054 c0 -8 5 -12 10 -9 6 4 8 11 5 16 -9 14 -15 11 -15 -7z"/>
<path d="M11482 6125 c0 -16 2 -22 5 -12 2 9 2 23 0 30 -3 6 -5 -1 -5 -18z"/>
<path d="M9321 5713 c-44 -23 -131 -93 -131 -106 0 -2 15 -4 33 -5 18 -1 48
-8 67 -15 19 -8 62 -17 94 -21 45 -5 74 -16 114 -42 51 -34 54 -35 67 -18 15
21 11 104 -7 137 -27 52 -97 97 -148 97 -20 0 -60 -12 -89 -27z"/>
<path d="M8616 5182 c-3 -6 -1 -14 5 -17 15 -10 25 3 12 16 -7 7 -13 7 -17 1z"/>
<path d="M8586 5145 c-3 -9 -6 -22 -5 -28 0 -7 5 -1 10 12 5 13 8 26 5 28 -2
2 -6 -3 -10 -12z"/>
<path d="M8610 5106 c0 -9 5 -16 10 -16 6 0 10 4 10 9 0 6 -4 13 -10 16 -5 3
-10 -1 -10 -9z"/>
<path d="M9061 5083 c-1 -6 -4 -20 -7 -30 -5 -15 -4 -15 5 -3 19 27 12 -8 -9
-42 -25 -41 -25 -47 0 -41 11 3 20 12 20 21 0 8 3 12 6 9 4 -3 15 -2 25 3 15
9 16 15 7 40 -5 17 -16 30 -23 30 -7 0 -16 6 -18 13 -4 8 -6 8 -6 0z"/>
<path d="M8640 5021 c0 -5 -3 -17 -6 -25 -5 -12 -2 -15 10 -10 18 7 21 29 6
39 -5 3 -10 2 -10 -4z"/>
<path d="M11072 4743 c-8 -14 -9 -24 -2 -28 12 -7 24 18 18 37 -3 8 -9 5 -16
-9z"/>
<path d="M10090 4691 c0 -6 4 -13 10 -16 6 -3 7 1 4 9 -7 18 -14 21 -14 7z"/>
<path d="M9110 4650 c0 -5 5 -10 10 -10 6 0 10 5 10 10 0 6 -4 10 -10 10 -5 0
-10 -4 -10 -10z"/>
<path d="M8820 4359 c0 -5 5 -7 10 -4 6 3 10 8 10 11 0 2 -4 4 -10 4 -5 0 -10
-5 -10 -11z"/>
<path d="M8731 4259 c-9 -27 -9 -30 6 -25 13 6 14 4 3 -10 -8 -9 -10 -18 -4
-22 5 -4 11 -22 13 -41 2 -24 -1 -31 -10 -26 -8 5 -10 4 -5 -3 18 -29 26 -6
26 73 0 88 -10 107 -29 54z"/>
<path d="M8792 4248 c-1 -25 -5 -55 -8 -65 -5 -17 -5 -17 6 0 6 9 9 39 7 65
l-3 47 -2 -47z"/>
<path d="M9000 4214 c0 -43 5 -86 10 -94 7 -10 9 13 5 74 -6 112 -15 125 -15
20z"/>
<path d="M8835 3880 c-3 -5 -1 -10 4 -10 6 0 11 5 11 10 0 6 -2 10 -4 10 -3 0
-8 -4 -11 -10z"/>
<path d="M8352 3729 c-9 -13 -9 -20 0 -25 6 -4 8 -3 4 4 -3 6 -2 13 4 17 5 3
10 1 10 -4 0 -6 5 -11 10 -11 15 0 12 27 -3 33 -7 3 -19 -3 -25 -14z"/>
<path d="M8291 3674 c0 -11 3 -14 6 -6 3 7 2 16 -1 19 -3 4 -6 -2 -5 -13z"/>
<path d="M8277 3603 c-11 -10 -8 -20 8 -27 10 -4 15 1 15 14 0 20 -11 26 -23
13z"/>
<path d="M8495 3300 c3 -5 8 -10 11 -10 2 0 4 5 4 10 0 6 -5 10 -11 10 -5 0
-7 -4 -4 -10z"/>
<path d="M8476 3234 c-10 -25 1 -29 14 -5 6 12 7 21 1 21 -5 0 -12 -7 -15 -16z"/>
<path d="M8420 3036 c0 -2 7 -9 15 -16 13 -11 14 -10 9 4 -5 14 -24 23 -24 12z"/>
<path d="M8560 3020 c0 -5 5 -10 10 -10 6 0 10 5 10 10 0 6 -4 10 -10 10 -5 0
-10 -4 -10 -10z"/>
<path d="M8440 2996 c0 -2 7 -7 16 -10 8 -3 12 -2 9 4 -6 10 -25 14 -25 6z"/>
<path d="M8450 2956 c0 -9 7 -16 16 -16 9 0 14 5 12 12 -6 18 -28 21 -28 4z"/>
<path d="M8415 2950 c-3 -5 -1 -10 4 -10 6 0 11 5 11 10 0 6 -2 10 -4 10 -3 0
-8 -4 -11 -10z"/>
<path d="M8530 2890 c0 -13 28 -25 38 -16 3 4 0 11 -8 16 -20 13 -30 12 -30 0z"/>
<path d="M9716 2855 c4 -8 8 -15 10 -15 2 0 4 7 4 15 0 8 -4 15 -10 15 -5 0
-7 -7 -4 -15z"/>
<path d="M8625 2850 c-3 -5 1 -10 10 -10 9 0 13 5 10 10 -3 6 -8 10 -10 10 -2
0 -7 -4 -10 -10z"/>
<path d="M8575 2841 c-6 -11 9 -23 19 -14 9 9 7 23 -3 23 -6 0 -12 -4 -16 -9z"/>
<path d="M8953 2798 c2 -7 10 -13 17 -13 7 0 15 6 18 13 2 7 -5 12 -18 12 -13
0 -20 -5 -17 -12z"/>
<path d="M9650 2770 c0 -5 5 -10 10 -10 6 0 10 5 10 10 0 6 -4 10 -10 10 -5 0
-10 -4 -10 -10z"/>
<path d="M8660 2760 c0 -5 7 -10 15 -10 8 0 15 5 15 10 0 6 -7 10 -15 10 -8 0
-15 -4 -15 -10z"/>
<path d="M9710 2759 c0 -5 5 -7 10 -4 6 3 10 8 10 11 0 2 -4 4 -10 4 -5 0 -10
-5 -10 -11z"/>
<path d="M8700 2750 c0 -5 5 -10 10 -10 6 0 10 5 10 10 0 6 -4 10 -10 10 -5 0
-10 -4 -10 -10z"/>
<path d="M9485 2740 c-3 -5 -1 -10 4 -10 6 0 11 5 11 10 0 6 -2 10 -4 10 -3 0
-8 -4 -11 -10z"/>
<path d="M9354 2685 c-19 -14 -18 -14 4 -15 13 0 22 6 22 15 0 19 -1 19 -26 0z"/>
<path d="M7746 10023 c-6 -14 -5 -15 5 -6 7 7 10 15 7 18 -3 3 -9 -2 -12 -12z"/>
<path d="M10507 8744 c-21 -24 -34 -44 -29 -44 10 0 76 79 71 85 -2 2 -21 -17
-42 -41z"/>
<path d="M7350 7849 c0 -5 5 -7 10 -4 6 3 10 8 10 11 0 2 -4 4 -10 4 -5 0 -10
-5 -10 -11z"/>
<path d="M7255 7780 c-3 -5 1 -10 10 -10 9 0 13 5 10 10 -3 6 -8 10 -10 10 -2
0 -7 -4 -10 -10z"/>
<path d="M7680 7198 c0 -4 4 -8 9 -8 6 0 12 4 15 8 3 5 -1 9 -9 9 -8 0 -15 -4
-15 -9z"/>
<path d="M7725 7180 c-8 -13 5 -13 25 0 13 8 13 10 -2 10 -9 0 -20 -4 -23 -10z"/>
<path d="M7696 7131 c-3 -5 1 -11 9 -14 9 -4 12 -1 8 9 -6 16 -10 17 -17 5z"/>
<path d="M7890 7100 c0 -5 7 -10 15 -10 8 0 15 5 15 10 0 6 -7 10 -15 10 -8 0
-15 -4 -15 -10z"/>
<path d="M7980 7060 c-9 -6 -10 -10 -3 -10 6 0 15 5 18 10 8 12 4 12 -15 0z"/>
<path d="M7730 7030 c0 -5 5 -10 11 -10 5 0 7 5 4 10 -3 6 -8 10 -11 10 -2 0
-4 -4 -4 -10z"/>
<path d="M8160 6907 c0 -9 4 -18 9 -21 5 -4 8 1 7 9 -3 21 -16 31 -16 12z"/>
<path d="M6842 6790 c0 -14 2 -19 5 -12 2 6 2 18 0 25 -3 6 -5 1 -5 -13z"/>
<path d="M6810 6774 c0 -8 5 -12 10 -9 6 4 8 11 5 16 -9 14 -15 11 -15 -7z"/>
<path d="M6770 6765 c0 -9 6 -12 15 -9 8 4 15 10 15 15 0 5 -7 9 -15 9 -8 0
-15 -7 -15 -15z"/>
<path d="M6845 6730 c-3 -6 1 -7 9 -4 18 7 21 14 7 14 -6 0 -13 -4 -16 -10z"/>
<path d="M6737 6556 c-4 -10 -1 -13 8 -9 8 3 12 9 9 14 -7 12 -11 11 -17 -5z"/>
<path d="M8067 6483 c-4 -3 -7 -11 -7 -17 0 -6 5 -5 12 2 6 6 9 14 7 17 -3 3
-9 2 -12 -2z"/>
<path d="M6870 5976 c0 -3 7 -12 16 -20 18 -18 44 -21 44 -5 0 6 -6 9 -14 6
-8 -3 -17 1 -20 9 -5 12 -26 21 -26 10z"/>
<path d="M7497 5874 c-14 -14 -7 -54 14 -72 28 -27 57 -18 55 16 -1 29 -24 54
-43 47 -6 -2 -13 1 -15 6 -2 6 -7 7 -11 3z"/>
<path d="M7100 5770 c-9 -6 -10 -10 -3 -10 6 0 15 5 18 10 8 12 4 12 -15 0z"/>
<path d="M7951 5754 c0 -11 3 -14 6 -6 3 7 2 16 -1 19 -3 4 -6 -2 -5 -13z"/>
<path d="M7168 5603 c7 -3 16 -2 19 1 4 3 -2 6 -13 5 -11 0 -14 -3 -6 -6z"/>
<path d="M7260 5556 c0 -9 5 -16 10 -16 6 0 10 4 10 9 0 6 -4 13 -10 16 -5 3
-10 -1 -10 -9z"/>
<path d="M7220 5510 c0 -5 5 -10 11 -10 5 0 7 5 4 10 -3 6 -8 10 -11 10 -2 0
-4 -4 -4 -10z"/>
<path d="M7230 5370 c0 -6 7 -10 15 -10 8 0 15 2 15 4 0 2 -7 6 -15 10 -8 3
-15 1 -15 -4z"/>
<path d="M7262 5337 c-10 -11 -9 -17 2 -26 17 -14 26 -3 17 22 -6 16 -9 17
-19 4z"/>
<path d="M7287 5270 c3 -11 10 -20 15 -20 6 0 8 -7 4 -15 -3 -9 0 -15 9 -15
17 0 19 9 5 30 -5 9 -5 19 2 27 8 10 5 13 -15 13 -20 0 -24 -4 -20 -20z"/>
<path d="M8127 5253 c-4 -3 -7 -11 -7 -17 0 -6 5 -5 12 2 6 6 9 14 7 17 -3 3
-9 2 -12 -2z"/>
<path d="M8070 5190 c0 -5 5 -10 11 -10 5 0 7 5 4 10 -3 6 -8 10 -11 10 -2 0
-4 -4 -4 -10z"/>
<path d="M8076 5121 c-4 -7 -5 -15 -2 -18 9 -9 19 4 14 18 -4 11 -6 11 -12 0z"/>
<path d="M8033 5078 c-6 -13 -7 -32 -3 -43 4 -11 6 -23 3 -27 -2 -5 5 -8 16
-8 12 0 21 -4 21 -10 0 -5 -4 -10 -10 -10 -5 0 -10 -8 -10 -17 0 -15 2 -14 15
4 15 22 11 58 -6 47 -9 -5 -13 21 -9 64 1 12 0 22 -3 22 -2 0 -8 -10 -14 -22z"/>
<path d="M8086 5061 c-4 -5 -2 -12 3 -15 5 -4 12 -2 15 3 4 5 2 12 -3 15 -5 4
-12 2 -15 -3z"/>
<path d="M8002 5021 c5 -33 -1 -38 -20 -19 -12 12 -17 1 -13 -31 2 -8 -2 -10
-11 -5 -10 6 -10 5 -2 -7 6 -8 13 -20 15 -27 3 -10 9 -9 24 3 11 9 15 14 8 11
-6 -4 -14 -2 -17 3 -4 5 3 12 14 16 15 5 20 15 20 40 0 19 -5 37 -11 41 -8 5
-10 -3 -7 -25z"/>
<path d="M7920 4975 c0 -14 2 -25 4 -25 2 0 6 11 8 25 3 14 1 25 -3 25 -5 0
-9 -11 -9 -25z"/>
<path d="M8080 4909 c0 -5 -4 -7 -10 -4 -5 3 -10 -1 -10 -9 0 -9 6 -13 14 -10
17 7 30 34 16 34 -6 0 -10 -5 -10 -11z"/>
<path d="M7935 4880 c-4 -6 -3 -16 3 -22 13 -13 23 4 13 21 -7 10 -10 10 -16
1z"/>
<path d="M7872 4760 c0 -14 2 -19 5 -12 2 6 2 18 0 25 -3 6 -5 1 -5 -13z"/>
<path d="M7785 4744 c0 -25 15 -46 15 -21 0 8 2 22 5 30 3 7 0 14 -8 14 -7 0
-13 -10 -12 -23z"/>
<path d="M7945 4740 c3 -5 8 -10 11 -10 2 0 4 5 4 10 0 6 -5 10 -11 10 -5 0
-7 -4 -4 -10z"/>
<path d="M7805 4190 c3 -5 10 -10 16 -10 5 0 9 5 9 10 0 6 -7 10 -16 10 -8 0
-12 -4 -9 -10z"/>
<path d="M8495 5040 c4 -6 11 -8 16 -5 14 9 11 15 -7 15 -8 0 -12 -5 -9 -10z"/>
<path d="M10385 3119 c-4 -6 -5 -13 -2 -16 7 -7 27 6 27 18 0 12 -17 12 -25
-2z"/>
</g>
</svg>
